%TF.GenerationSoftware,KiCad,Pcbnew,8.0.0*%
%TF.CreationDate,2024-03-19T17:26:08-04:00*%
%TF.ProjectId,1_arduino_project,315f6172-6475-4696-9e6f-5f70726f6a65,rev?*%
%TF.SameCoordinates,Original*%
%TF.FileFunction,Soldermask,Bot*%
%TF.FilePolarity,Negative*%
%FSLAX46Y46*%
G04 Gerber Fmt 4.6, Leading zero omitted, Abs format (unit mm)*
G04 Created by KiCad (PCBNEW 8.0.0) date 2024-03-19 17:26:08*
%MOMM*%
%LPD*%
G01*
G04 APERTURE LIST*
%ADD10R,1.700000X1.700000*%
%ADD11O,1.700000X1.700000*%
%ADD12C,1.600000*%
%ADD13O,1.600000X1.600000*%
%ADD14C,1.524000*%
%ADD15R,1.800000X1.800000*%
%ADD16C,1.800000*%
%ADD17C,3.200000*%
G04 APERTURE END LIST*
D10*
%TO.C,J1*%
X27940000Y2540000D03*
D11*
X30480000Y2540000D03*
X33020000Y2540000D03*
X35560000Y2540000D03*
X38100000Y2540000D03*
X40640000Y2540000D03*
X43180000Y2540000D03*
X45720000Y2540000D03*
%TD*%
D10*
%TO.C,J3*%
X50800000Y2540000D03*
D11*
X53340000Y2540000D03*
X55880000Y2540000D03*
X58420000Y2540000D03*
X60960000Y2540000D03*
X63500000Y2540000D03*
%TD*%
D10*
%TO.C,J2*%
X18796000Y50800000D03*
D11*
X21336000Y50800000D03*
X23876000Y50800000D03*
X26416000Y50800000D03*
X28956000Y50800000D03*
X31496000Y50800000D03*
X34036000Y50800000D03*
X36576000Y50800000D03*
X39116000Y50800000D03*
X41656000Y50800000D03*
%TD*%
D10*
%TO.C,J4*%
X45720000Y50800000D03*
D11*
X48260000Y50800000D03*
X50800000Y50800000D03*
X53340000Y50800000D03*
X55880000Y50800000D03*
X58420000Y50800000D03*
X60960000Y50800000D03*
X63500000Y50800000D03*
%TD*%
D12*
%TO.C,R1*%
X36920000Y10500000D03*
D13*
X47080000Y10500000D03*
%TD*%
D12*
%TO.C,R2*%
X28000000Y10500000D03*
D13*
X17840000Y10500000D03*
%TD*%
D14*
%TO.C,SW3*%
X10000000Y27350000D03*
X16500000Y27350000D03*
X16500000Y22850000D03*
X10000000Y22850000D03*
%TD*%
D15*
%TO.C,D1*%
X43000000Y39225000D03*
D16*
X43000000Y41765000D03*
%TD*%
D17*
%TO.C,MH1*%
X15240000Y50800000D03*
%TD*%
D14*
%TO.C,SW2*%
X41000000Y32500000D03*
X47500000Y32500000D03*
X47500000Y28000000D03*
X41000000Y28000000D03*
%TD*%
D15*
%TO.C,D2*%
X21000000Y39075000D03*
D16*
X21000000Y41615000D03*
%TD*%
D14*
%TO.C,SW4*%
X27000000Y27350000D03*
X33500000Y27350000D03*
X33500000Y22850000D03*
X27000000Y22850000D03*
%TD*%
%TO.C,SW1*%
X41725000Y22000000D03*
X48225000Y22000000D03*
X48225000Y17500000D03*
X41725000Y17500000D03*
%TD*%
D17*
%TO.C,MH2*%
X13970000Y2540000D03*
%TD*%
%TO.C,MH3*%
X66040000Y35560000D03*
%TD*%
%TO.C,MH4*%
X66040000Y7620000D03*
%TD*%
M02*
