M48
METRIC,TZ
T1C0.800
T2C0.900
T3C1.000
%
G90
G05
T1
X17840Y10500
X28000Y10500
X36920Y10500
X47080Y10500
T2
X21000Y41615
X21000Y39075
X43000Y41765
X43000Y39225
T3
X10000Y27350
X10000Y22850
X16500Y27350
X16500Y22850
X18796Y50800
X21336Y50800
X23876Y50800
X26416Y50800
X27000Y27350
X27000Y22850
X27940Y2540
X28956Y50800
X30480Y2540
X31496Y50800
X33020Y2540
X33500Y27350
X33500Y22850
X34036Y50800
X35560Y2540
X36576Y50800
X38100Y2540
X39116Y50800
X40640Y2540
X41000Y32500
X41000Y28000
X41656Y50800
X41725Y22000
X41725Y17500
X43180Y2540
X45720Y50800
X45720Y2540
X47500Y32500
X47500Y28000
X48225Y22000
X48225Y17500
X48260Y50800
X50800Y50800
X50800Y2540
X53340Y50800
X53340Y2540
X55880Y50800
X55880Y2540
X58420Y50800
X58420Y2540
X60960Y50800
X60960Y2540
X63500Y50800
X63500Y2540
M30
