%TF.GenerationSoftware,KiCad,Pcbnew,8.0.0*%
%TF.CreationDate,2024-03-19T17:26:08-04:00*%
%TF.ProjectId,1_arduino_project,315f6172-6475-4696-9e6f-5f70726f6a65,rev?*%
%TF.SameCoordinates,Original*%
%TF.FileFunction,Legend,Top*%
%TF.FilePolarity,Positive*%
%FSLAX46Y46*%
G04 Gerber Fmt 4.6, Leading zero omitted, Abs format (unit mm)*
G04 Created by KiCad (PCBNEW 8.0.0) date 2024-03-19 17:26:08*
%MOMM*%
%LPD*%
G01*
G04 APERTURE LIST*
%ADD10C,0.150000*%
%ADD11C,0.100000*%
%ADD12C,0.120000*%
%ADD13C,0.350000*%
G04 APERTURE END LIST*
D10*
X23000000Y26850000D02*
X19000000Y26850000D01*
X23700000Y24550000D02*
G75*
G02*
X22300000Y24550000I-700000J0D01*
G01*
X22300000Y24550000D02*
G75*
G02*
X23700000Y24550000I700000J0D01*
G01*
X23000000Y26850000D02*
X23000000Y25350000D01*
X23000000Y22350000D02*
X23000000Y23850000D01*
X19000000Y22350000D02*
X23000000Y22350000D01*
X52225000Y30000000D02*
X52225000Y26700000D01*
X21000000Y22350000D02*
X21000000Y20650000D01*
X52225000Y25300000D02*
X52225000Y22200000D01*
X52925000Y21500000D02*
G75*
G02*
X51525000Y21500000I-700000J0D01*
G01*
X51525000Y21500000D02*
G75*
G02*
X52925000Y21500000I700000J0D01*
G01*
X52225000Y20800000D02*
X52225000Y18000000D01*
X21000000Y28700000D02*
X21000000Y26850000D01*
X19000000Y26750000D02*
X19000000Y25250000D01*
X52925000Y26000000D02*
G75*
G02*
X51525000Y26000000I-700000J0D01*
G01*
X51525000Y26000000D02*
G75*
G02*
X52925000Y26000000I700000J0D01*
G01*
X19700000Y24550000D02*
G75*
G02*
X18300000Y24550000I-700000J0D01*
G01*
X18300000Y24550000D02*
G75*
G02*
X19700000Y24550000I700000J0D01*
G01*
X19000000Y22350000D02*
X19000000Y23850000D01*
X60135783Y47710840D02*
X60135783Y47234650D01*
X59850068Y47806078D02*
X60850068Y47472745D01*
X60850068Y47472745D02*
X59850068Y47139412D01*
X59850068Y46234650D02*
X60326259Y46567983D01*
X59850068Y46806078D02*
X60850068Y46806078D01*
X60850068Y46806078D02*
X60850068Y46425126D01*
X60850068Y46425126D02*
X60802449Y46329888D01*
X60802449Y46329888D02*
X60754830Y46282269D01*
X60754830Y46282269D02*
X60659592Y46234650D01*
X60659592Y46234650D02*
X60516735Y46234650D01*
X60516735Y46234650D02*
X60421497Y46282269D01*
X60421497Y46282269D02*
X60373878Y46329888D01*
X60373878Y46329888D02*
X60326259Y46425126D01*
X60326259Y46425126D02*
X60326259Y46806078D01*
X59850068Y45806078D02*
X60850068Y45806078D01*
X60850068Y45806078D02*
X60850068Y45567983D01*
X60850068Y45567983D02*
X60802449Y45425126D01*
X60802449Y45425126D02*
X60707211Y45329888D01*
X60707211Y45329888D02*
X60611973Y45282269D01*
X60611973Y45282269D02*
X60421497Y45234650D01*
X60421497Y45234650D02*
X60278640Y45234650D01*
X60278640Y45234650D02*
X60088164Y45282269D01*
X60088164Y45282269D02*
X59992926Y45329888D01*
X59992926Y45329888D02*
X59897688Y45425126D01*
X59897688Y45425126D02*
X59850068Y45567983D01*
X59850068Y45567983D02*
X59850068Y45806078D01*
X60850068Y44806078D02*
X60040545Y44806078D01*
X60040545Y44806078D02*
X59945307Y44758459D01*
X59945307Y44758459D02*
X59897688Y44710840D01*
X59897688Y44710840D02*
X59850068Y44615602D01*
X59850068Y44615602D02*
X59850068Y44425126D01*
X59850068Y44425126D02*
X59897688Y44329888D01*
X59897688Y44329888D02*
X59945307Y44282269D01*
X59945307Y44282269D02*
X60040545Y44234650D01*
X60040545Y44234650D02*
X60850068Y44234650D01*
X59850068Y43758459D02*
X60850068Y43758459D01*
X59850068Y43282269D02*
X60850068Y43282269D01*
X60850068Y43282269D02*
X59850068Y42710841D01*
X59850068Y42710841D02*
X60850068Y42710841D01*
X60850068Y42044174D02*
X60850068Y41853698D01*
X60850068Y41853698D02*
X60802449Y41758460D01*
X60802449Y41758460D02*
X60707211Y41663222D01*
X60707211Y41663222D02*
X60516735Y41615603D01*
X60516735Y41615603D02*
X60183402Y41615603D01*
X60183402Y41615603D02*
X59992926Y41663222D01*
X59992926Y41663222D02*
X59897688Y41758460D01*
X59897688Y41758460D02*
X59850068Y41853698D01*
X59850068Y41853698D02*
X59850068Y42044174D01*
X59850068Y42044174D02*
X59897688Y42139412D01*
X59897688Y42139412D02*
X59992926Y42234650D01*
X59992926Y42234650D02*
X60183402Y42282269D01*
X60183402Y42282269D02*
X60516735Y42282269D01*
X60516735Y42282269D02*
X60707211Y42234650D01*
X60707211Y42234650D02*
X60802449Y42139412D01*
X60802449Y42139412D02*
X60850068Y42044174D01*
X60850068Y40234650D02*
X60850068Y40139412D01*
X60850068Y40139412D02*
X60802449Y40044174D01*
X60802449Y40044174D02*
X60754830Y39996555D01*
X60754830Y39996555D02*
X60659592Y39948936D01*
X60659592Y39948936D02*
X60469116Y39901317D01*
X60469116Y39901317D02*
X60231021Y39901317D01*
X60231021Y39901317D02*
X60040545Y39948936D01*
X60040545Y39948936D02*
X59945307Y39996555D01*
X59945307Y39996555D02*
X59897688Y40044174D01*
X59897688Y40044174D02*
X59850068Y40139412D01*
X59850068Y40139412D02*
X59850068Y40234650D01*
X59850068Y40234650D02*
X59897688Y40329888D01*
X59897688Y40329888D02*
X59945307Y40377507D01*
X59945307Y40377507D02*
X60040545Y40425126D01*
X60040545Y40425126D02*
X60231021Y40472745D01*
X60231021Y40472745D02*
X60469116Y40472745D01*
X60469116Y40472745D02*
X60659592Y40425126D01*
X60659592Y40425126D02*
X60754830Y40377507D01*
X60754830Y40377507D02*
X60802449Y40329888D01*
X60802449Y40329888D02*
X60850068Y40234650D01*
X59850068Y38948936D02*
X59850068Y39520364D01*
X59850068Y39234650D02*
X60850068Y39234650D01*
X60850068Y39234650D02*
X60707211Y39329888D01*
X60707211Y39329888D02*
X60611973Y39425126D01*
X60611973Y39425126D02*
X60564354Y39520364D01*
X59945307Y38520364D02*
X59897688Y38472745D01*
X59897688Y38472745D02*
X59850068Y38520364D01*
X59850068Y38520364D02*
X59897688Y38567983D01*
X59897688Y38567983D02*
X59945307Y38520364D01*
X59945307Y38520364D02*
X59850068Y38520364D01*
X60469116Y38520364D02*
X60421497Y38472745D01*
X60421497Y38472745D02*
X60373878Y38520364D01*
X60373878Y38520364D02*
X60421497Y38567983D01*
X60421497Y38567983D02*
X60469116Y38520364D01*
X60469116Y38520364D02*
X60373878Y38520364D01*
X59850068Y37282269D02*
X60850068Y37282269D01*
X60850068Y37282269D02*
X60850068Y36901317D01*
X60850068Y36901317D02*
X60802449Y36806079D01*
X60802449Y36806079D02*
X60754830Y36758460D01*
X60754830Y36758460D02*
X60659592Y36710841D01*
X60659592Y36710841D02*
X60516735Y36710841D01*
X60516735Y36710841D02*
X60421497Y36758460D01*
X60421497Y36758460D02*
X60373878Y36806079D01*
X60373878Y36806079D02*
X60326259Y36901317D01*
X60326259Y36901317D02*
X60326259Y37282269D01*
X60135783Y36329888D02*
X60135783Y35853698D01*
X59850068Y36425126D02*
X60850068Y36091793D01*
X60850068Y36091793D02*
X59850068Y35758460D01*
X59850068Y34853698D02*
X60326259Y35187031D01*
X59850068Y35425126D02*
X60850068Y35425126D01*
X60850068Y35425126D02*
X60850068Y35044174D01*
X60850068Y35044174D02*
X60802449Y34948936D01*
X60802449Y34948936D02*
X60754830Y34901317D01*
X60754830Y34901317D02*
X60659592Y34853698D01*
X60659592Y34853698D02*
X60516735Y34853698D01*
X60516735Y34853698D02*
X60421497Y34901317D01*
X60421497Y34901317D02*
X60373878Y34948936D01*
X60373878Y34948936D02*
X60326259Y35044174D01*
X60326259Y35044174D02*
X60326259Y35425126D01*
X60135783Y34472745D02*
X60135783Y33996555D01*
X59850068Y34567983D02*
X60850068Y34234650D01*
X60850068Y34234650D02*
X59850068Y33901317D01*
X59850068Y33091793D02*
X59850068Y33567983D01*
X59850068Y33567983D02*
X60850068Y33567983D01*
X59850068Y32282269D02*
X59850068Y32758459D01*
X59850068Y32758459D02*
X60850068Y32758459D01*
X60373878Y31948935D02*
X60373878Y31615602D01*
X59850068Y31472745D02*
X59850068Y31948935D01*
X59850068Y31948935D02*
X60850068Y31948935D01*
X60850068Y31948935D02*
X60850068Y31472745D01*
X59850068Y30567983D02*
X59850068Y31044173D01*
X59850068Y31044173D02*
X60850068Y31044173D01*
X59850068Y28663220D02*
X59850068Y28710839D01*
X59850068Y28710839D02*
X59897688Y28806078D01*
X59897688Y28806078D02*
X60040545Y28948935D01*
X60040545Y28948935D02*
X60326259Y29187030D01*
X60326259Y29187030D02*
X60469116Y29282268D01*
X60469116Y29282268D02*
X60611973Y29329887D01*
X60611973Y29329887D02*
X60707211Y29329887D01*
X60707211Y29329887D02*
X60802449Y29282268D01*
X60802449Y29282268D02*
X60850068Y29187030D01*
X60850068Y29187030D02*
X60850068Y29139411D01*
X60850068Y29139411D02*
X60802449Y29044173D01*
X60802449Y29044173D02*
X60707211Y28996554D01*
X60707211Y28996554D02*
X60659592Y28996554D01*
X60659592Y28996554D02*
X60564354Y29044173D01*
X60564354Y29044173D02*
X60516735Y29091792D01*
X60516735Y29091792D02*
X60326259Y29377506D01*
X60326259Y29377506D02*
X60278640Y29425125D01*
X60278640Y29425125D02*
X60183402Y29472744D01*
X60183402Y29472744D02*
X60040545Y29472744D01*
X60040545Y29472744D02*
X59945307Y29425125D01*
X59945307Y29425125D02*
X59897688Y29377506D01*
X59897688Y29377506D02*
X59850068Y29282268D01*
X59850068Y29282268D02*
X59850068Y29139411D01*
X59850068Y29139411D02*
X59897688Y29044173D01*
X59897688Y29044173D02*
X59945307Y28996554D01*
X59945307Y28996554D02*
X60135783Y28853697D01*
X60135783Y28853697D02*
X60278640Y28806078D01*
X60278640Y28806078D02*
X60373878Y28806078D01*
X59897688Y27520363D02*
X59850068Y27377506D01*
X59850068Y27377506D02*
X59850068Y27139411D01*
X59850068Y27139411D02*
X59897688Y27044173D01*
X59897688Y27044173D02*
X59945307Y26996554D01*
X59945307Y26996554D02*
X60040545Y26948935D01*
X60040545Y26948935D02*
X60135783Y26948935D01*
X60135783Y26948935D02*
X60231021Y26996554D01*
X60231021Y26996554D02*
X60278640Y27044173D01*
X60278640Y27044173D02*
X60326259Y27139411D01*
X60326259Y27139411D02*
X60373878Y27329887D01*
X60373878Y27329887D02*
X60421497Y27425125D01*
X60421497Y27425125D02*
X60469116Y27472744D01*
X60469116Y27472744D02*
X60564354Y27520363D01*
X60564354Y27520363D02*
X60659592Y27520363D01*
X60659592Y27520363D02*
X60754830Y27472744D01*
X60754830Y27472744D02*
X60802449Y27425125D01*
X60802449Y27425125D02*
X60850068Y27329887D01*
X60850068Y27329887D02*
X60850068Y27091792D01*
X60850068Y27091792D02*
X60802449Y26948935D01*
X60373878Y26520363D02*
X60373878Y26187030D01*
X59850068Y26044173D02*
X59850068Y26520363D01*
X59850068Y26520363D02*
X60850068Y26520363D01*
X60850068Y26520363D02*
X60850068Y26044173D01*
X59850068Y25044173D02*
X60326259Y25377506D01*
X59850068Y25615601D02*
X60850068Y25615601D01*
X60850068Y25615601D02*
X60850068Y25234649D01*
X60850068Y25234649D02*
X60802449Y25139411D01*
X60802449Y25139411D02*
X60754830Y25091792D01*
X60754830Y25091792D02*
X60659592Y25044173D01*
X60659592Y25044173D02*
X60516735Y25044173D01*
X60516735Y25044173D02*
X60421497Y25091792D01*
X60421497Y25091792D02*
X60373878Y25139411D01*
X60373878Y25139411D02*
X60326259Y25234649D01*
X60326259Y25234649D02*
X60326259Y25615601D01*
X59850068Y24615601D02*
X60850068Y24615601D01*
X60373878Y24139411D02*
X60373878Y23806078D01*
X59850068Y23663221D02*
X59850068Y24139411D01*
X59850068Y24139411D02*
X60850068Y24139411D01*
X60850068Y24139411D02*
X60850068Y23663221D01*
X59897688Y23282268D02*
X59850068Y23139411D01*
X59850068Y23139411D02*
X59850068Y22901316D01*
X59850068Y22901316D02*
X59897688Y22806078D01*
X59897688Y22806078D02*
X59945307Y22758459D01*
X59945307Y22758459D02*
X60040545Y22710840D01*
X60040545Y22710840D02*
X60135783Y22710840D01*
X60135783Y22710840D02*
X60231021Y22758459D01*
X60231021Y22758459D02*
X60278640Y22806078D01*
X60278640Y22806078D02*
X60326259Y22901316D01*
X60326259Y22901316D02*
X60373878Y23091792D01*
X60373878Y23091792D02*
X60421497Y23187030D01*
X60421497Y23187030D02*
X60469116Y23234649D01*
X60469116Y23234649D02*
X60564354Y23282268D01*
X60564354Y23282268D02*
X60659592Y23282268D01*
X60659592Y23282268D02*
X60754830Y23234649D01*
X60754830Y23234649D02*
X60802449Y23187030D01*
X60802449Y23187030D02*
X60850068Y23091792D01*
X60850068Y23091792D02*
X60850068Y22853697D01*
X60850068Y22853697D02*
X60802449Y22710840D01*
X58240124Y47663221D02*
X59240124Y47663221D01*
X59240124Y47663221D02*
X59240124Y47425126D01*
X59240124Y47425126D02*
X59192505Y47282269D01*
X59192505Y47282269D02*
X59097267Y47187031D01*
X59097267Y47187031D02*
X59002029Y47139412D01*
X59002029Y47139412D02*
X58811553Y47091793D01*
X58811553Y47091793D02*
X58668696Y47091793D01*
X58668696Y47091793D02*
X58478220Y47139412D01*
X58478220Y47139412D02*
X58382982Y47187031D01*
X58382982Y47187031D02*
X58287744Y47282269D01*
X58287744Y47282269D02*
X58240124Y47425126D01*
X58240124Y47425126D02*
X58240124Y47663221D01*
X58335363Y46663221D02*
X58287744Y46615602D01*
X58287744Y46615602D02*
X58240124Y46663221D01*
X58240124Y46663221D02*
X58287744Y46710840D01*
X58287744Y46710840D02*
X58335363Y46663221D01*
X58335363Y46663221D02*
X58240124Y46663221D01*
X58287744Y46234650D02*
X58240124Y46091793D01*
X58240124Y46091793D02*
X58240124Y45853698D01*
X58240124Y45853698D02*
X58287744Y45758460D01*
X58287744Y45758460D02*
X58335363Y45710841D01*
X58335363Y45710841D02*
X58430601Y45663222D01*
X58430601Y45663222D02*
X58525839Y45663222D01*
X58525839Y45663222D02*
X58621077Y45710841D01*
X58621077Y45710841D02*
X58668696Y45758460D01*
X58668696Y45758460D02*
X58716315Y45853698D01*
X58716315Y45853698D02*
X58763934Y46044174D01*
X58763934Y46044174D02*
X58811553Y46139412D01*
X58811553Y46139412D02*
X58859172Y46187031D01*
X58859172Y46187031D02*
X58954410Y46234650D01*
X58954410Y46234650D02*
X59049648Y46234650D01*
X59049648Y46234650D02*
X59144886Y46187031D01*
X59144886Y46187031D02*
X59192505Y46139412D01*
X59192505Y46139412D02*
X59240124Y46044174D01*
X59240124Y46044174D02*
X59240124Y45806079D01*
X59240124Y45806079D02*
X59192505Y45663222D01*
X58240124Y45234650D02*
X59240124Y45234650D01*
X58763934Y45234650D02*
X58763934Y44663222D01*
X58240124Y44663222D02*
X59240124Y44663222D01*
X58763934Y44187031D02*
X58763934Y43853698D01*
X58240124Y43710841D02*
X58240124Y44187031D01*
X58240124Y44187031D02*
X59240124Y44187031D01*
X59240124Y44187031D02*
X59240124Y43710841D01*
X58240124Y42710841D02*
X58716315Y43044174D01*
X58240124Y43282269D02*
X59240124Y43282269D01*
X59240124Y43282269D02*
X59240124Y42901317D01*
X59240124Y42901317D02*
X59192505Y42806079D01*
X59192505Y42806079D02*
X59144886Y42758460D01*
X59144886Y42758460D02*
X59049648Y42710841D01*
X59049648Y42710841D02*
X58906791Y42710841D01*
X58906791Y42710841D02*
X58811553Y42758460D01*
X58811553Y42758460D02*
X58763934Y42806079D01*
X58763934Y42806079D02*
X58716315Y42901317D01*
X58716315Y42901317D02*
X58716315Y43282269D01*
X58240124Y42282269D02*
X59240124Y42282269D01*
X59240124Y42282269D02*
X58525839Y41948936D01*
X58525839Y41948936D02*
X59240124Y41615603D01*
X59240124Y41615603D02*
X58240124Y41615603D01*
X58525839Y41187031D02*
X58525839Y40710841D01*
X58240124Y41282269D02*
X59240124Y40948936D01*
X59240124Y40948936D02*
X58240124Y40615603D01*
X58240124Y40282269D02*
X59240124Y40282269D01*
X59240124Y40282269D02*
X58240124Y39710841D01*
X58240124Y39710841D02*
X59240124Y39710841D01*
X57630180Y47472745D02*
X57630180Y47377507D01*
X57630180Y47377507D02*
X57582561Y47282269D01*
X57582561Y47282269D02*
X57534942Y47234650D01*
X57534942Y47234650D02*
X57439704Y47187031D01*
X57439704Y47187031D02*
X57249228Y47139412D01*
X57249228Y47139412D02*
X57011133Y47139412D01*
X57011133Y47139412D02*
X56820657Y47187031D01*
X56820657Y47187031D02*
X56725419Y47234650D01*
X56725419Y47234650D02*
X56677800Y47282269D01*
X56677800Y47282269D02*
X56630180Y47377507D01*
X56630180Y47377507D02*
X56630180Y47472745D01*
X56630180Y47472745D02*
X56677800Y47567983D01*
X56677800Y47567983D02*
X56725419Y47615602D01*
X56725419Y47615602D02*
X56820657Y47663221D01*
X56820657Y47663221D02*
X57011133Y47710840D01*
X57011133Y47710840D02*
X57249228Y47710840D01*
X57249228Y47710840D02*
X57439704Y47663221D01*
X57439704Y47663221D02*
X57534942Y47615602D01*
X57534942Y47615602D02*
X57582561Y47567983D01*
X57582561Y47567983D02*
X57630180Y47472745D01*
X57630180Y46806078D02*
X57630180Y46187031D01*
X57630180Y46187031D02*
X57249228Y46520364D01*
X57249228Y46520364D02*
X57249228Y46377507D01*
X57249228Y46377507D02*
X57201609Y46282269D01*
X57201609Y46282269D02*
X57153990Y46234650D01*
X57153990Y46234650D02*
X57058752Y46187031D01*
X57058752Y46187031D02*
X56820657Y46187031D01*
X56820657Y46187031D02*
X56725419Y46234650D01*
X56725419Y46234650D02*
X56677800Y46282269D01*
X56677800Y46282269D02*
X56630180Y46377507D01*
X56630180Y46377507D02*
X56630180Y46663221D01*
X56630180Y46663221D02*
X56677800Y46758459D01*
X56677800Y46758459D02*
X56725419Y46806078D01*
X57677800Y45044174D02*
X56392085Y45901316D01*
X57534942Y44758459D02*
X57582561Y44710840D01*
X57582561Y44710840D02*
X57630180Y44615602D01*
X57630180Y44615602D02*
X57630180Y44377507D01*
X57630180Y44377507D02*
X57582561Y44282269D01*
X57582561Y44282269D02*
X57534942Y44234650D01*
X57534942Y44234650D02*
X57439704Y44187031D01*
X57439704Y44187031D02*
X57344466Y44187031D01*
X57344466Y44187031D02*
X57201609Y44234650D01*
X57201609Y44234650D02*
X56630180Y44806078D01*
X56630180Y44806078D02*
X56630180Y44187031D01*
X57296847Y43329888D02*
X56630180Y43329888D01*
X57677800Y43567983D02*
X56963514Y43806078D01*
X56963514Y43806078D02*
X56963514Y43187031D01*
X41833333Y12415181D02*
X41500000Y12891372D01*
X41261905Y12415181D02*
X41261905Y13415181D01*
X41261905Y13415181D02*
X41642857Y13415181D01*
X41642857Y13415181D02*
X41738095Y13367562D01*
X41738095Y13367562D02*
X41785714Y13319943D01*
X41785714Y13319943D02*
X41833333Y13224705D01*
X41833333Y13224705D02*
X41833333Y13081848D01*
X41833333Y13081848D02*
X41785714Y12986610D01*
X41785714Y12986610D02*
X41738095Y12938991D01*
X41738095Y12938991D02*
X41642857Y12891372D01*
X41642857Y12891372D02*
X41261905Y12891372D01*
X42785714Y12415181D02*
X42214286Y12415181D01*
X42500000Y12415181D02*
X42500000Y13415181D01*
X42500000Y13415181D02*
X42404762Y13272324D01*
X42404762Y13272324D02*
X42309524Y13177086D01*
X42309524Y13177086D02*
X42214286Y13129467D01*
X40190476Y8579943D02*
X40238095Y8627562D01*
X40238095Y8627562D02*
X40333333Y8675181D01*
X40333333Y8675181D02*
X40571428Y8675181D01*
X40571428Y8675181D02*
X40666666Y8627562D01*
X40666666Y8627562D02*
X40714285Y8579943D01*
X40714285Y8579943D02*
X40761904Y8484705D01*
X40761904Y8484705D02*
X40761904Y8389467D01*
X40761904Y8389467D02*
X40714285Y8246610D01*
X40714285Y8246610D02*
X40142857Y7675181D01*
X40142857Y7675181D02*
X40761904Y7675181D01*
X41619047Y8675181D02*
X41428571Y8675181D01*
X41428571Y8675181D02*
X41333333Y8627562D01*
X41333333Y8627562D02*
X41285714Y8579943D01*
X41285714Y8579943D02*
X41190476Y8437086D01*
X41190476Y8437086D02*
X41142857Y8246610D01*
X41142857Y8246610D02*
X41142857Y7865658D01*
X41142857Y7865658D02*
X41190476Y7770420D01*
X41190476Y7770420D02*
X41238095Y7722800D01*
X41238095Y7722800D02*
X41333333Y7675181D01*
X41333333Y7675181D02*
X41523809Y7675181D01*
X41523809Y7675181D02*
X41619047Y7722800D01*
X41619047Y7722800D02*
X41666666Y7770420D01*
X41666666Y7770420D02*
X41714285Y7865658D01*
X41714285Y7865658D02*
X41714285Y8103753D01*
X41714285Y8103753D02*
X41666666Y8198991D01*
X41666666Y8198991D02*
X41619047Y8246610D01*
X41619047Y8246610D02*
X41523809Y8294229D01*
X41523809Y8294229D02*
X41333333Y8294229D01*
X41333333Y8294229D02*
X41238095Y8246610D01*
X41238095Y8246610D02*
X41190476Y8198991D01*
X41190476Y8198991D02*
X41142857Y8103753D01*
X42333333Y8675181D02*
X42428571Y8675181D01*
X42428571Y8675181D02*
X42523809Y8627562D01*
X42523809Y8627562D02*
X42571428Y8579943D01*
X42571428Y8579943D02*
X42619047Y8484705D01*
X42619047Y8484705D02*
X42666666Y8294229D01*
X42666666Y8294229D02*
X42666666Y8056134D01*
X42666666Y8056134D02*
X42619047Y7865658D01*
X42619047Y7865658D02*
X42571428Y7770420D01*
X42571428Y7770420D02*
X42523809Y7722800D01*
X42523809Y7722800D02*
X42428571Y7675181D01*
X42428571Y7675181D02*
X42333333Y7675181D01*
X42333333Y7675181D02*
X42238095Y7722800D01*
X42238095Y7722800D02*
X42190476Y7770420D01*
X42190476Y7770420D02*
X42142857Y7865658D01*
X42142857Y7865658D02*
X42095238Y8056134D01*
X42095238Y8056134D02*
X42095238Y8294229D01*
X42095238Y8294229D02*
X42142857Y8484705D01*
X42142857Y8484705D02*
X42190476Y8579943D01*
X42190476Y8579943D02*
X42238095Y8627562D01*
X42238095Y8627562D02*
X42333333Y8675181D01*
X43047619Y7675181D02*
X43285714Y7675181D01*
X43285714Y7675181D02*
X43285714Y7865658D01*
X43285714Y7865658D02*
X43190476Y7913277D01*
X43190476Y7913277D02*
X43095238Y8008515D01*
X43095238Y8008515D02*
X43047619Y8151372D01*
X43047619Y8151372D02*
X43047619Y8389467D01*
X43047619Y8389467D02*
X43095238Y8532324D01*
X43095238Y8532324D02*
X43190476Y8627562D01*
X43190476Y8627562D02*
X43333333Y8675181D01*
X43333333Y8675181D02*
X43523809Y8675181D01*
X43523809Y8675181D02*
X43666666Y8627562D01*
X43666666Y8627562D02*
X43761904Y8532324D01*
X43761904Y8532324D02*
X43809523Y8389467D01*
X43809523Y8389467D02*
X43809523Y8151372D01*
X43809523Y8151372D02*
X43761904Y8008515D01*
X43761904Y8008515D02*
X43666666Y7913277D01*
X43666666Y7913277D02*
X43571428Y7865658D01*
X43571428Y7865658D02*
X43571428Y7675181D01*
X43571428Y7675181D02*
X43809523Y7675181D01*
X22753333Y7675181D02*
X22420000Y8151372D01*
X22181905Y7675181D02*
X22181905Y8675181D01*
X22181905Y8675181D02*
X22562857Y8675181D01*
X22562857Y8675181D02*
X22658095Y8627562D01*
X22658095Y8627562D02*
X22705714Y8579943D01*
X22705714Y8579943D02*
X22753333Y8484705D01*
X22753333Y8484705D02*
X22753333Y8341848D01*
X22753333Y8341848D02*
X22705714Y8246610D01*
X22705714Y8246610D02*
X22658095Y8198991D01*
X22658095Y8198991D02*
X22562857Y8151372D01*
X22562857Y8151372D02*
X22181905Y8151372D01*
X23134286Y8579943D02*
X23181905Y8627562D01*
X23181905Y8627562D02*
X23277143Y8675181D01*
X23277143Y8675181D02*
X23515238Y8675181D01*
X23515238Y8675181D02*
X23610476Y8627562D01*
X23610476Y8627562D02*
X23658095Y8579943D01*
X23658095Y8579943D02*
X23705714Y8484705D01*
X23705714Y8484705D02*
X23705714Y8389467D01*
X23705714Y8389467D02*
X23658095Y8246610D01*
X23658095Y8246610D02*
X23086667Y7675181D01*
X23086667Y7675181D02*
X23705714Y7675181D01*
X21110476Y13319943D02*
X21158095Y13367562D01*
X21158095Y13367562D02*
X21253333Y13415181D01*
X21253333Y13415181D02*
X21491428Y13415181D01*
X21491428Y13415181D02*
X21586666Y13367562D01*
X21586666Y13367562D02*
X21634285Y13319943D01*
X21634285Y13319943D02*
X21681904Y13224705D01*
X21681904Y13224705D02*
X21681904Y13129467D01*
X21681904Y13129467D02*
X21634285Y12986610D01*
X21634285Y12986610D02*
X21062857Y12415181D01*
X21062857Y12415181D02*
X21681904Y12415181D01*
X22539047Y13415181D02*
X22348571Y13415181D01*
X22348571Y13415181D02*
X22253333Y13367562D01*
X22253333Y13367562D02*
X22205714Y13319943D01*
X22205714Y13319943D02*
X22110476Y13177086D01*
X22110476Y13177086D02*
X22062857Y12986610D01*
X22062857Y12986610D02*
X22062857Y12605658D01*
X22062857Y12605658D02*
X22110476Y12510420D01*
X22110476Y12510420D02*
X22158095Y12462800D01*
X22158095Y12462800D02*
X22253333Y12415181D01*
X22253333Y12415181D02*
X22443809Y12415181D01*
X22443809Y12415181D02*
X22539047Y12462800D01*
X22539047Y12462800D02*
X22586666Y12510420D01*
X22586666Y12510420D02*
X22634285Y12605658D01*
X22634285Y12605658D02*
X22634285Y12843753D01*
X22634285Y12843753D02*
X22586666Y12938991D01*
X22586666Y12938991D02*
X22539047Y12986610D01*
X22539047Y12986610D02*
X22443809Y13034229D01*
X22443809Y13034229D02*
X22253333Y13034229D01*
X22253333Y13034229D02*
X22158095Y12986610D01*
X22158095Y12986610D02*
X22110476Y12938991D01*
X22110476Y12938991D02*
X22062857Y12843753D01*
X23253333Y13415181D02*
X23348571Y13415181D01*
X23348571Y13415181D02*
X23443809Y13367562D01*
X23443809Y13367562D02*
X23491428Y13319943D01*
X23491428Y13319943D02*
X23539047Y13224705D01*
X23539047Y13224705D02*
X23586666Y13034229D01*
X23586666Y13034229D02*
X23586666Y12796134D01*
X23586666Y12796134D02*
X23539047Y12605658D01*
X23539047Y12605658D02*
X23491428Y12510420D01*
X23491428Y12510420D02*
X23443809Y12462800D01*
X23443809Y12462800D02*
X23348571Y12415181D01*
X23348571Y12415181D02*
X23253333Y12415181D01*
X23253333Y12415181D02*
X23158095Y12462800D01*
X23158095Y12462800D02*
X23110476Y12510420D01*
X23110476Y12510420D02*
X23062857Y12605658D01*
X23062857Y12605658D02*
X23015238Y12796134D01*
X23015238Y12796134D02*
X23015238Y13034229D01*
X23015238Y13034229D02*
X23062857Y13224705D01*
X23062857Y13224705D02*
X23110476Y13319943D01*
X23110476Y13319943D02*
X23158095Y13367562D01*
X23158095Y13367562D02*
X23253333Y13415181D01*
X23967619Y12415181D02*
X24205714Y12415181D01*
X24205714Y12415181D02*
X24205714Y12605658D01*
X24205714Y12605658D02*
X24110476Y12653277D01*
X24110476Y12653277D02*
X24015238Y12748515D01*
X24015238Y12748515D02*
X23967619Y12891372D01*
X23967619Y12891372D02*
X23967619Y13129467D01*
X23967619Y13129467D02*
X24015238Y13272324D01*
X24015238Y13272324D02*
X24110476Y13367562D01*
X24110476Y13367562D02*
X24253333Y13415181D01*
X24253333Y13415181D02*
X24443809Y13415181D01*
X24443809Y13415181D02*
X24586666Y13367562D01*
X24586666Y13367562D02*
X24681904Y13272324D01*
X24681904Y13272324D02*
X24729523Y13129467D01*
X24729523Y13129467D02*
X24729523Y12891372D01*
X24729523Y12891372D02*
X24681904Y12748515D01*
X24681904Y12748515D02*
X24586666Y12653277D01*
X24586666Y12653277D02*
X24491428Y12605658D01*
X24491428Y12605658D02*
X24491428Y12415181D01*
X24491428Y12415181D02*
X24729523Y12415181D01*
D11*
X8666667Y28590200D02*
X8809524Y28542581D01*
X8809524Y28542581D02*
X9047619Y28542581D01*
X9047619Y28542581D02*
X9142857Y28590200D01*
X9142857Y28590200D02*
X9190476Y28637820D01*
X9190476Y28637820D02*
X9238095Y28733058D01*
X9238095Y28733058D02*
X9238095Y28828296D01*
X9238095Y28828296D02*
X9190476Y28923534D01*
X9190476Y28923534D02*
X9142857Y28971153D01*
X9142857Y28971153D02*
X9047619Y29018772D01*
X9047619Y29018772D02*
X8857143Y29066391D01*
X8857143Y29066391D02*
X8761905Y29114010D01*
X8761905Y29114010D02*
X8714286Y29161629D01*
X8714286Y29161629D02*
X8666667Y29256867D01*
X8666667Y29256867D02*
X8666667Y29352105D01*
X8666667Y29352105D02*
X8714286Y29447343D01*
X8714286Y29447343D02*
X8761905Y29494962D01*
X8761905Y29494962D02*
X8857143Y29542581D01*
X8857143Y29542581D02*
X9095238Y29542581D01*
X9095238Y29542581D02*
X9238095Y29494962D01*
X9571429Y29542581D02*
X9809524Y28542581D01*
X9809524Y28542581D02*
X10000000Y29256867D01*
X10000000Y29256867D02*
X10190476Y28542581D01*
X10190476Y28542581D02*
X10428572Y29542581D01*
X10714286Y29542581D02*
X11333333Y29542581D01*
X11333333Y29542581D02*
X11000000Y29161629D01*
X11000000Y29161629D02*
X11142857Y29161629D01*
X11142857Y29161629D02*
X11238095Y29114010D01*
X11238095Y29114010D02*
X11285714Y29066391D01*
X11285714Y29066391D02*
X11333333Y28971153D01*
X11333333Y28971153D02*
X11333333Y28733058D01*
X11333333Y28733058D02*
X11285714Y28637820D01*
X11285714Y28637820D02*
X11238095Y28590200D01*
X11238095Y28590200D02*
X11142857Y28542581D01*
X11142857Y28542581D02*
X10857143Y28542581D01*
X10857143Y28542581D02*
X10761905Y28590200D01*
X10761905Y28590200D02*
X10714286Y28637820D01*
D10*
X39494819Y39756906D02*
X38494819Y39756906D01*
X38494819Y39756906D02*
X38494819Y39995001D01*
X38494819Y39995001D02*
X38542438Y40137858D01*
X38542438Y40137858D02*
X38637676Y40233096D01*
X38637676Y40233096D02*
X38732914Y40280715D01*
X38732914Y40280715D02*
X38923390Y40328334D01*
X38923390Y40328334D02*
X39066247Y40328334D01*
X39066247Y40328334D02*
X39256723Y40280715D01*
X39256723Y40280715D02*
X39351961Y40233096D01*
X39351961Y40233096D02*
X39447200Y40137858D01*
X39447200Y40137858D02*
X39494819Y39995001D01*
X39494819Y39995001D02*
X39494819Y39756906D01*
X39494819Y41280715D02*
X39494819Y40709287D01*
X39494819Y40995001D02*
X38494819Y40995001D01*
X38494819Y40995001D02*
X38637676Y40899763D01*
X38637676Y40899763D02*
X38732914Y40804525D01*
X38732914Y40804525D02*
X38780533Y40709287D01*
D11*
X39666667Y34090200D02*
X39809524Y34042581D01*
X39809524Y34042581D02*
X40047619Y34042581D01*
X40047619Y34042581D02*
X40142857Y34090200D01*
X40142857Y34090200D02*
X40190476Y34137820D01*
X40190476Y34137820D02*
X40238095Y34233058D01*
X40238095Y34233058D02*
X40238095Y34328296D01*
X40238095Y34328296D02*
X40190476Y34423534D01*
X40190476Y34423534D02*
X40142857Y34471153D01*
X40142857Y34471153D02*
X40047619Y34518772D01*
X40047619Y34518772D02*
X39857143Y34566391D01*
X39857143Y34566391D02*
X39761905Y34614010D01*
X39761905Y34614010D02*
X39714286Y34661629D01*
X39714286Y34661629D02*
X39666667Y34756867D01*
X39666667Y34756867D02*
X39666667Y34852105D01*
X39666667Y34852105D02*
X39714286Y34947343D01*
X39714286Y34947343D02*
X39761905Y34994962D01*
X39761905Y34994962D02*
X39857143Y35042581D01*
X39857143Y35042581D02*
X40095238Y35042581D01*
X40095238Y35042581D02*
X40238095Y34994962D01*
X40571429Y35042581D02*
X40809524Y34042581D01*
X40809524Y34042581D02*
X41000000Y34756867D01*
X41000000Y34756867D02*
X41190476Y34042581D01*
X41190476Y34042581D02*
X41428572Y35042581D01*
X41761905Y34947343D02*
X41809524Y34994962D01*
X41809524Y34994962D02*
X41904762Y35042581D01*
X41904762Y35042581D02*
X42142857Y35042581D01*
X42142857Y35042581D02*
X42238095Y34994962D01*
X42238095Y34994962D02*
X42285714Y34947343D01*
X42285714Y34947343D02*
X42333333Y34852105D01*
X42333333Y34852105D02*
X42333333Y34756867D01*
X42333333Y34756867D02*
X42285714Y34614010D01*
X42285714Y34614010D02*
X41714286Y34042581D01*
X41714286Y34042581D02*
X42333333Y34042581D01*
D10*
X17494819Y39606906D02*
X16494819Y39606906D01*
X16494819Y39606906D02*
X16494819Y39845001D01*
X16494819Y39845001D02*
X16542438Y39987858D01*
X16542438Y39987858D02*
X16637676Y40083096D01*
X16637676Y40083096D02*
X16732914Y40130715D01*
X16732914Y40130715D02*
X16923390Y40178334D01*
X16923390Y40178334D02*
X17066247Y40178334D01*
X17066247Y40178334D02*
X17256723Y40130715D01*
X17256723Y40130715D02*
X17351961Y40083096D01*
X17351961Y40083096D02*
X17447200Y39987858D01*
X17447200Y39987858D02*
X17494819Y39845001D01*
X17494819Y39845001D02*
X17494819Y39606906D01*
X16590057Y40559287D02*
X16542438Y40606906D01*
X16542438Y40606906D02*
X16494819Y40702144D01*
X16494819Y40702144D02*
X16494819Y40940239D01*
X16494819Y40940239D02*
X16542438Y41035477D01*
X16542438Y41035477D02*
X16590057Y41083096D01*
X16590057Y41083096D02*
X16685295Y41130715D01*
X16685295Y41130715D02*
X16780533Y41130715D01*
X16780533Y41130715D02*
X16923390Y41083096D01*
X16923390Y41083096D02*
X17494819Y40511668D01*
X17494819Y40511668D02*
X17494819Y41130715D01*
D11*
X25666667Y28590200D02*
X25809524Y28542581D01*
X25809524Y28542581D02*
X26047619Y28542581D01*
X26047619Y28542581D02*
X26142857Y28590200D01*
X26142857Y28590200D02*
X26190476Y28637820D01*
X26190476Y28637820D02*
X26238095Y28733058D01*
X26238095Y28733058D02*
X26238095Y28828296D01*
X26238095Y28828296D02*
X26190476Y28923534D01*
X26190476Y28923534D02*
X26142857Y28971153D01*
X26142857Y28971153D02*
X26047619Y29018772D01*
X26047619Y29018772D02*
X25857143Y29066391D01*
X25857143Y29066391D02*
X25761905Y29114010D01*
X25761905Y29114010D02*
X25714286Y29161629D01*
X25714286Y29161629D02*
X25666667Y29256867D01*
X25666667Y29256867D02*
X25666667Y29352105D01*
X25666667Y29352105D02*
X25714286Y29447343D01*
X25714286Y29447343D02*
X25761905Y29494962D01*
X25761905Y29494962D02*
X25857143Y29542581D01*
X25857143Y29542581D02*
X26095238Y29542581D01*
X26095238Y29542581D02*
X26238095Y29494962D01*
X26571429Y29542581D02*
X26809524Y28542581D01*
X26809524Y28542581D02*
X27000000Y29256867D01*
X27000000Y29256867D02*
X27190476Y28542581D01*
X27190476Y28542581D02*
X27428572Y29542581D01*
X28238095Y29209248D02*
X28238095Y28542581D01*
X28000000Y29590200D02*
X27761905Y28875915D01*
X27761905Y28875915D02*
X28380952Y28875915D01*
X40391667Y23590200D02*
X40534524Y23542581D01*
X40534524Y23542581D02*
X40772619Y23542581D01*
X40772619Y23542581D02*
X40867857Y23590200D01*
X40867857Y23590200D02*
X40915476Y23637820D01*
X40915476Y23637820D02*
X40963095Y23733058D01*
X40963095Y23733058D02*
X40963095Y23828296D01*
X40963095Y23828296D02*
X40915476Y23923534D01*
X40915476Y23923534D02*
X40867857Y23971153D01*
X40867857Y23971153D02*
X40772619Y24018772D01*
X40772619Y24018772D02*
X40582143Y24066391D01*
X40582143Y24066391D02*
X40486905Y24114010D01*
X40486905Y24114010D02*
X40439286Y24161629D01*
X40439286Y24161629D02*
X40391667Y24256867D01*
X40391667Y24256867D02*
X40391667Y24352105D01*
X40391667Y24352105D02*
X40439286Y24447343D01*
X40439286Y24447343D02*
X40486905Y24494962D01*
X40486905Y24494962D02*
X40582143Y24542581D01*
X40582143Y24542581D02*
X40820238Y24542581D01*
X40820238Y24542581D02*
X40963095Y24494962D01*
X41296429Y24542581D02*
X41534524Y23542581D01*
X41534524Y23542581D02*
X41725000Y24256867D01*
X41725000Y24256867D02*
X41915476Y23542581D01*
X41915476Y23542581D02*
X42153572Y24542581D01*
X43058333Y23542581D02*
X42486905Y23542581D01*
X42772619Y23542581D02*
X42772619Y24542581D01*
X42772619Y24542581D02*
X42677381Y24399724D01*
X42677381Y24399724D02*
X42582143Y24304486D01*
X42582143Y24304486D02*
X42486905Y24256867D01*
D12*
%TO.C,J1*%
X26610000Y3870000D02*
X27940000Y3870000D01*
X26610000Y2540000D02*
X26610000Y3870000D01*
X29210000Y3870000D02*
X47050000Y3870000D01*
X29210000Y1210000D02*
X29210000Y3870000D01*
X29210000Y1210000D02*
X47050000Y1210000D01*
X47050000Y1210000D02*
X47050000Y3870000D01*
%TO.C,J3*%
X49470000Y3870000D02*
X50800000Y3870000D01*
X49470000Y2540000D02*
X49470000Y3870000D01*
X52070000Y3870000D02*
X64830000Y3870000D01*
X52070000Y1210000D02*
X52070000Y3870000D01*
X52070000Y1210000D02*
X64830000Y1210000D01*
X64830000Y1210000D02*
X64830000Y3870000D01*
%TO.C,J2*%
X17466000Y52130000D02*
X18796000Y52130000D01*
X17466000Y50800000D02*
X17466000Y52130000D01*
X20066000Y52130000D02*
X42986000Y52130000D01*
X20066000Y49470000D02*
X20066000Y52130000D01*
X20066000Y49470000D02*
X42986000Y49470000D01*
X42986000Y49470000D02*
X42986000Y52130000D01*
%TO.C,J4*%
X44390000Y52130000D02*
X45720000Y52130000D01*
X44390000Y50800000D02*
X44390000Y52130000D01*
X46990000Y52130000D02*
X64830000Y52130000D01*
X46990000Y49470000D02*
X46990000Y52130000D01*
X46990000Y49470000D02*
X64830000Y49470000D01*
X64830000Y49470000D02*
X64830000Y52130000D01*
%TO.C,R1*%
X37960000Y10500000D02*
X38730000Y10500000D01*
X38730000Y11870000D02*
X38730000Y9130000D01*
X38730000Y9130000D02*
X45270000Y9130000D01*
X45270000Y11870000D02*
X38730000Y11870000D01*
X45270000Y9130000D02*
X45270000Y11870000D01*
X46040000Y10500000D02*
X45270000Y10500000D01*
%TO.C,R2*%
X18880000Y10500000D02*
X19650000Y10500000D01*
X19650000Y11870000D02*
X19650000Y9130000D01*
X19650000Y9130000D02*
X26190000Y9130000D01*
X26190000Y11870000D02*
X19650000Y11870000D01*
X26190000Y9130000D02*
X26190000Y11870000D01*
X26960000Y10500000D02*
X26190000Y10500000D01*
%TO.C,D1*%
X41455000Y37935000D02*
X44545000Y37935000D01*
X41455170Y37935001D02*
G75*
G02*
X43000462Y43484999I1544830J2559999D01*
G01*
X42999538Y43485000D02*
G75*
G02*
X44544830Y37935000I462J-2990000D01*
G01*
X45500000Y40495000D02*
G75*
G02*
X40500000Y40495000I-2500000J0D01*
G01*
X40500000Y40495000D02*
G75*
G02*
X45500000Y40495000I2500000J0D01*
G01*
%TO.C,D2*%
X19455000Y37785000D02*
X22545000Y37785000D01*
X19455170Y37785001D02*
G75*
G02*
X21000462Y43334999I1544830J2559999D01*
G01*
X20999538Y43335000D02*
G75*
G02*
X22544830Y37785000I462J-2990000D01*
G01*
X23500000Y40345000D02*
G75*
G02*
X18500000Y40345000I-2500000J0D01*
G01*
X18500000Y40345000D02*
G75*
G02*
X23500000Y40345000I2500000J0D01*
G01*
%TD*%
D13*
X27940000Y2540000D03*
X30480000Y2540000D03*
X33020000Y2540000D03*
X35560000Y2540000D03*
X38100000Y2540000D03*
X40640000Y2540000D03*
X43180000Y2540000D03*
X45720000Y2540000D03*
X50800000Y2540000D03*
X53340000Y2540000D03*
X55880000Y2540000D03*
X58420000Y2540000D03*
X60960000Y2540000D03*
X63500000Y2540000D03*
X18796000Y50800000D03*
X21336000Y50800000D03*
X23876000Y50800000D03*
X26416000Y50800000D03*
X28956000Y50800000D03*
X31496000Y50800000D03*
X34036000Y50800000D03*
X36576000Y50800000D03*
X39116000Y50800000D03*
X41656000Y50800000D03*
X45720000Y50800000D03*
X48260000Y50800000D03*
X50800000Y50800000D03*
X53340000Y50800000D03*
X55880000Y50800000D03*
X58420000Y50800000D03*
X60960000Y50800000D03*
X63500000Y50800000D03*
X36920000Y10500000D03*
X47080000Y10500000D03*
X28000000Y10500000D03*
X17840000Y10500000D03*
X10000000Y27350000D03*
X16500000Y27350000D03*
X16500000Y22850000D03*
X10000000Y22850000D03*
X43000000Y39225000D03*
X43000000Y41765000D03*
X15240000Y50800000D03*
X41000000Y32500000D03*
X47500000Y32500000D03*
X47500000Y28000000D03*
X41000000Y28000000D03*
X21000000Y39075000D03*
X21000000Y41615000D03*
X27000000Y27350000D03*
X33500000Y27350000D03*
X33500000Y22850000D03*
X27000000Y22850000D03*
X41725000Y22000000D03*
X48225000Y22000000D03*
X48225000Y17500000D03*
X41725000Y17500000D03*
X13970000Y2540000D03*
X66040000Y35560000D03*
X66040000Y7620000D03*
M02*
