%TF.GenerationSoftware,KiCad,Pcbnew,8.0.0*%
%TF.CreationDate,2024-03-19T17:26:08-04:00*%
%TF.ProjectId,1_arduino_project,315f6172-6475-4696-9e6f-5f70726f6a65,rev?*%
%TF.SameCoordinates,Original*%
%TF.FileFunction,Copper,L1,Top*%
%TF.FilePolarity,Positive*%
%FSLAX46Y46*%
G04 Gerber Fmt 4.6, Leading zero omitted, Abs format (unit mm)*
G04 Created by KiCad (PCBNEW 8.0.0) date 2024-03-19 17:26:08*
%MOMM*%
%LPD*%
G01*
G04 APERTURE LIST*
%TA.AperFunction,ComponentPad*%
%ADD10R,1.700000X1.700000*%
%TD*%
%TA.AperFunction,ComponentPad*%
%ADD11O,1.700000X1.700000*%
%TD*%
%TA.AperFunction,ComponentPad*%
%ADD12C,1.600000*%
%TD*%
%TA.AperFunction,ComponentPad*%
%ADD13O,1.600000X1.600000*%
%TD*%
%TA.AperFunction,ComponentPad*%
%ADD14C,1.524000*%
%TD*%
%TA.AperFunction,ComponentPad*%
%ADD15R,1.800000X1.800000*%
%TD*%
%TA.AperFunction,ComponentPad*%
%ADD16C,1.800000*%
%TD*%
%TA.AperFunction,Conductor*%
%ADD17C,0.250000*%
%TD*%
%TA.AperFunction,Conductor*%
%ADD18C,0.200000*%
%TD*%
%ADD19C,0.350000*%
G04 APERTURE END LIST*
D10*
%TO.P,J1,1,Pin_1*%
%TO.N,unconnected-(J1-Pin_1-Pad1)*%
X27940000Y2540000D03*
D11*
%TO.P,J1,2,Pin_2*%
%TO.N,/IOREF*%
X30480000Y2540000D03*
%TO.P,J1,3,Pin_3*%
%TO.N,/~{RESET}*%
X33020000Y2540000D03*
%TO.P,J1,4,Pin_4*%
%TO.N,+3V3*%
X35560000Y2540000D03*
%TO.P,J1,5,Pin_5*%
%TO.N,+5V*%
X38100000Y2540000D03*
%TO.P,J1,6,Pin_6*%
%TO.N,GND*%
X40640000Y2540000D03*
%TO.P,J1,7,Pin_7*%
X43180000Y2540000D03*
%TO.P,J1,8,Pin_8*%
%TO.N,VCC*%
X45720000Y2540000D03*
%TD*%
D10*
%TO.P,J3,1,Pin_1*%
%TO.N,/A0*%
X50800000Y2540000D03*
D11*
%TO.P,J3,2,Pin_2*%
%TO.N,/A1*%
X53340000Y2540000D03*
%TO.P,J3,3,Pin_3*%
%TO.N,/A2*%
X55880000Y2540000D03*
%TO.P,J3,4,Pin_4*%
%TO.N,/A3*%
X58420000Y2540000D03*
%TO.P,J3,5,Pin_5*%
%TO.N,/SDA{slash}A4*%
X60960000Y2540000D03*
%TO.P,J3,6,Pin_6*%
%TO.N,/SCL{slash}A5*%
X63500000Y2540000D03*
%TD*%
D10*
%TO.P,J2,1,Pin_1*%
%TO.N,/SCL{slash}A5*%
X18796000Y50800000D03*
D11*
%TO.P,J2,2,Pin_2*%
%TO.N,/SDA{slash}A4*%
X21336000Y50800000D03*
%TO.P,J2,3,Pin_3*%
%TO.N,/AREF*%
X23876000Y50800000D03*
%TO.P,J2,4,Pin_4*%
%TO.N,GND*%
X26416000Y50800000D03*
%TO.P,J2,5,Pin_5*%
%TO.N,/13*%
X28956000Y50800000D03*
%TO.P,J2,6,Pin_6*%
%TO.N,/12*%
X31496000Y50800000D03*
%TO.P,J2,7,Pin_7*%
%TO.N,/\u002A11*%
X34036000Y50800000D03*
%TO.P,J2,8,Pin_8*%
%TO.N,/\u002A10*%
X36576000Y50800000D03*
%TO.P,J2,9,Pin_9*%
%TO.N,/\u002A9*%
X39116000Y50800000D03*
%TO.P,J2,10,Pin_10*%
%TO.N,/8*%
X41656000Y50800000D03*
%TD*%
D10*
%TO.P,J4,1,Pin_1*%
%TO.N,/7*%
X45720000Y50800000D03*
D11*
%TO.P,J4,2,Pin_2*%
%TO.N,/\u002A6*%
X48260000Y50800000D03*
%TO.P,J4,3,Pin_3*%
%TO.N,/\u002A5*%
X50800000Y50800000D03*
%TO.P,J4,4,Pin_4*%
%TO.N,/4*%
X53340000Y50800000D03*
%TO.P,J4,5,Pin_5*%
%TO.N,/\u002A3*%
X55880000Y50800000D03*
%TO.P,J4,6,Pin_6*%
%TO.N,/2*%
X58420000Y50800000D03*
%TO.P,J4,7,Pin_7*%
%TO.N,/TX{slash}1*%
X60960000Y50800000D03*
%TO.P,J4,8,Pin_8*%
%TO.N,/RX{slash}0*%
X63500000Y50800000D03*
%TD*%
D12*
%TO.P,R1,1*%
%TO.N,VCC*%
X36920000Y10500000D03*
D13*
%TO.P,R1,2*%
%TO.N,Net-(R1-Pad2)*%
X47080000Y10500000D03*
%TD*%
D12*
%TO.P,R2,1*%
%TO.N,VCC*%
X28000000Y10500000D03*
D13*
%TO.P,R2,2*%
%TO.N,Net-(R2-Pad2)*%
X17840000Y10500000D03*
%TD*%
D14*
%TO.P,SW3,1,1*%
%TO.N,Net-(R2-Pad2)*%
X10000000Y27350000D03*
%TO.P,SW3,2,2*%
%TO.N,Net-(D2-K)*%
X16500000Y27350000D03*
%TO.P,SW3,3*%
%TO.N,N/C*%
X16500000Y22850000D03*
%TO.P,SW3,4*%
X10000000Y22850000D03*
%TD*%
D15*
%TO.P,D1,1,K*%
%TO.N,Net-(D1-K)*%
X43000000Y39225000D03*
D16*
%TO.P,D1,2,A*%
%TO.N,GND*%
X43000000Y41765000D03*
%TD*%
D14*
%TO.P,SW2,1,1*%
%TO.N,Net-(SW1-Pad2)*%
X41000000Y32500000D03*
%TO.P,SW2,2,2*%
%TO.N,Net-(D1-K)*%
X47500000Y32500000D03*
%TO.P,SW2,3*%
%TO.N,N/C*%
X47500000Y28000000D03*
%TO.P,SW2,4*%
X41000000Y28000000D03*
%TD*%
D15*
%TO.P,D2,1,K*%
%TO.N,Net-(D2-K)*%
X21000000Y39075000D03*
D16*
%TO.P,D2,2,A*%
%TO.N,GND*%
X21000000Y41615000D03*
%TD*%
D14*
%TO.P,SW4,1,1*%
%TO.N,Net-(R2-Pad2)*%
X27000000Y27350000D03*
%TO.P,SW4,2,2*%
%TO.N,Net-(D2-K)*%
X33500000Y27350000D03*
%TO.P,SW4,3*%
%TO.N,N/C*%
X33500000Y22850000D03*
%TO.P,SW4,4*%
X27000000Y22850000D03*
%TD*%
%TO.P,SW1,1,1*%
%TO.N,Net-(R1-Pad2)*%
X41725000Y22000000D03*
%TO.P,SW1,2,2*%
%TO.N,Net-(SW1-Pad2)*%
X48225000Y22000000D03*
%TO.P,SW1,3*%
%TO.N,N/C*%
X48225000Y17500000D03*
%TO.P,SW1,4*%
X41725000Y17500000D03*
%TD*%
D17*
%TO.N,GND*%
X21000000Y41615000D02*
X21000000Y45384000D01*
X21000000Y45384000D02*
X26416000Y50800000D01*
X43000000Y41765000D02*
X35451000Y41765000D01*
X35451000Y41765000D02*
X26416000Y50800000D01*
%TO.N,VCC*%
X41760000Y6500000D02*
X38500000Y6500000D01*
X38500000Y6500000D02*
X36920000Y8080000D01*
X36920000Y10500000D02*
X28000000Y10500000D01*
X36920000Y8080000D02*
X36920000Y10500000D01*
X45720000Y2540000D02*
X41760000Y6500000D01*
D18*
%TO.N,Net-(D1-K)*%
X47500000Y34725000D02*
X43000000Y39225000D01*
X47500000Y32500000D02*
X47500000Y34725000D01*
D17*
%TO.N,Net-(D2-K)*%
X16500000Y27350000D02*
X16500000Y34575000D01*
X16500000Y27350000D02*
X19150000Y30000000D01*
X19150000Y30000000D02*
X30850000Y30000000D01*
X30850000Y30000000D02*
X33500000Y27350000D01*
X16500000Y34575000D02*
X21000000Y39075000D01*
D18*
%TO.N,Net-(R1-Pad2)*%
X47080000Y16645000D02*
X41725000Y22000000D01*
X47080000Y10500000D02*
X47080000Y16645000D01*
%TO.N,Net-(R2-Pad2)*%
X17840000Y14840000D02*
X20000000Y17000000D01*
X20000000Y17351895D02*
X19998105Y17351895D01*
X20000000Y17351895D02*
X27000000Y24351895D01*
X20000000Y17000000D02*
X20000000Y17351895D01*
X19998105Y17351895D02*
X10000000Y27350000D01*
X17840000Y10500000D02*
X17840000Y14840000D01*
X27000000Y24351895D02*
X27000000Y27350000D01*
D17*
%TO.N,Net-(SW1-Pad2)*%
X48225000Y22000000D02*
X48225000Y25500000D01*
X48225000Y25500000D02*
X41725000Y32000000D01*
%TD*%
D19*
X27940000Y2540000D03*
X30480000Y2540000D03*
X33020000Y2540000D03*
X35560000Y2540000D03*
X38100000Y2540000D03*
X40640000Y2540000D03*
X43180000Y2540000D03*
X45720000Y2540000D03*
X50800000Y2540000D03*
X53340000Y2540000D03*
X55880000Y2540000D03*
X58420000Y2540000D03*
X60960000Y2540000D03*
X63500000Y2540000D03*
X18796000Y50800000D03*
X21336000Y50800000D03*
X23876000Y50800000D03*
X26416000Y50800000D03*
X28956000Y50800000D03*
X31496000Y50800000D03*
X34036000Y50800000D03*
X36576000Y50800000D03*
X39116000Y50800000D03*
X41656000Y50800000D03*
X45720000Y50800000D03*
X48260000Y50800000D03*
X50800000Y50800000D03*
X53340000Y50800000D03*
X55880000Y50800000D03*
X58420000Y50800000D03*
X60960000Y50800000D03*
X63500000Y50800000D03*
X36920000Y10500000D03*
X47080000Y10500000D03*
X28000000Y10500000D03*
X17840000Y10500000D03*
X10000000Y27350000D03*
X16500000Y27350000D03*
X16500000Y22850000D03*
X10000000Y22850000D03*
X43000000Y39225000D03*
X43000000Y41765000D03*
X15240000Y50800000D03*
X41000000Y32500000D03*
X47500000Y32500000D03*
X47500000Y28000000D03*
X41000000Y28000000D03*
X21000000Y39075000D03*
X21000000Y41615000D03*
X27000000Y27350000D03*
X33500000Y27350000D03*
X33500000Y22850000D03*
X27000000Y22850000D03*
X41725000Y22000000D03*
X48225000Y22000000D03*
X48225000Y17500000D03*
X41725000Y17500000D03*
X13970000Y2540000D03*
X66040000Y35560000D03*
X66040000Y7620000D03*
M02*
