%TF.GenerationSoftware,KiCad,Pcbnew,8.0.0*%
%TF.CreationDate,2024-03-19T17:26:08-04:00*%
%TF.ProjectId,1_arduino_project,315f6172-6475-4696-9e6f-5f70726f6a65,rev?*%
%TF.SameCoordinates,Original*%
%TF.FileFunction,Legend,Top*%
%TF.FilePolarity,Positive*%
%FSLAX46Y46*%
G04 Gerber Fmt 4.6, Leading zero omitted, Abs format (unit mm)*
G04 Created by KiCad (PCBNEW 8.0.0) date 2024-03-19 17:26:08*
%MOMM*%
%LPD*%
G01*
G04 APERTURE LIST*
%ADD10C,0.150000*%
%ADD11C,0.100000*%
%ADD12C,0.120000*%
%ADD13C,0.350000*%
G04 APERTURE END LIST*
D10*
X123000000Y-73150000D02*
X119000000Y-73150000D01*
X123700000Y-75450000D02*
G75*
G02*
X122300000Y-75450000I-700000J0D01*
G01*
X122300000Y-75450000D02*
G75*
G02*
X123700000Y-75450000I700000J0D01*
G01*
X123000000Y-73150000D02*
X123000000Y-74650000D01*
X123000000Y-77650000D02*
X123000000Y-76150000D01*
X119000000Y-77650000D02*
X123000000Y-77650000D01*
X152225000Y-70000000D02*
X152225000Y-73300000D01*
X121000000Y-77650000D02*
X121000000Y-79350000D01*
X152225000Y-74700000D02*
X152225000Y-77800000D01*
X152925000Y-78500000D02*
G75*
G02*
X151525000Y-78500000I-700000J0D01*
G01*
X151525000Y-78500000D02*
G75*
G02*
X152925000Y-78500000I700000J0D01*
G01*
X152225000Y-79200000D02*
X152225000Y-82000000D01*
X121000000Y-71300000D02*
X121000000Y-73150000D01*
X119000000Y-73250000D02*
X119000000Y-74750000D01*
X152925000Y-74000000D02*
G75*
G02*
X151525000Y-74000000I-700000J0D01*
G01*
X151525000Y-74000000D02*
G75*
G02*
X152925000Y-74000000I700000J0D01*
G01*
X119700000Y-75450000D02*
G75*
G02*
X118300000Y-75450000I-700000J0D01*
G01*
X118300000Y-75450000D02*
G75*
G02*
X119700000Y-75450000I700000J0D01*
G01*
X119000000Y-77650000D02*
X119000000Y-76150000D01*
X160135783Y-52289160D02*
X160135783Y-52765350D01*
X159850068Y-52193922D02*
X160850068Y-52527255D01*
X160850068Y-52527255D02*
X159850068Y-52860588D01*
X159850068Y-53765350D02*
X160326259Y-53432017D01*
X159850068Y-53193922D02*
X160850068Y-53193922D01*
X160850068Y-53193922D02*
X160850068Y-53574874D01*
X160850068Y-53574874D02*
X160802449Y-53670112D01*
X160802449Y-53670112D02*
X160754830Y-53717731D01*
X160754830Y-53717731D02*
X160659592Y-53765350D01*
X160659592Y-53765350D02*
X160516735Y-53765350D01*
X160516735Y-53765350D02*
X160421497Y-53717731D01*
X160421497Y-53717731D02*
X160373878Y-53670112D01*
X160373878Y-53670112D02*
X160326259Y-53574874D01*
X160326259Y-53574874D02*
X160326259Y-53193922D01*
X159850068Y-54193922D02*
X160850068Y-54193922D01*
X160850068Y-54193922D02*
X160850068Y-54432017D01*
X160850068Y-54432017D02*
X160802449Y-54574874D01*
X160802449Y-54574874D02*
X160707211Y-54670112D01*
X160707211Y-54670112D02*
X160611973Y-54717731D01*
X160611973Y-54717731D02*
X160421497Y-54765350D01*
X160421497Y-54765350D02*
X160278640Y-54765350D01*
X160278640Y-54765350D02*
X160088164Y-54717731D01*
X160088164Y-54717731D02*
X159992926Y-54670112D01*
X159992926Y-54670112D02*
X159897688Y-54574874D01*
X159897688Y-54574874D02*
X159850068Y-54432017D01*
X159850068Y-54432017D02*
X159850068Y-54193922D01*
X160850068Y-55193922D02*
X160040545Y-55193922D01*
X160040545Y-55193922D02*
X159945307Y-55241541D01*
X159945307Y-55241541D02*
X159897688Y-55289160D01*
X159897688Y-55289160D02*
X159850068Y-55384398D01*
X159850068Y-55384398D02*
X159850068Y-55574874D01*
X159850068Y-55574874D02*
X159897688Y-55670112D01*
X159897688Y-55670112D02*
X159945307Y-55717731D01*
X159945307Y-55717731D02*
X160040545Y-55765350D01*
X160040545Y-55765350D02*
X160850068Y-55765350D01*
X159850068Y-56241541D02*
X160850068Y-56241541D01*
X159850068Y-56717731D02*
X160850068Y-56717731D01*
X160850068Y-56717731D02*
X159850068Y-57289159D01*
X159850068Y-57289159D02*
X160850068Y-57289159D01*
X160850068Y-57955826D02*
X160850068Y-58146302D01*
X160850068Y-58146302D02*
X160802449Y-58241540D01*
X160802449Y-58241540D02*
X160707211Y-58336778D01*
X160707211Y-58336778D02*
X160516735Y-58384397D01*
X160516735Y-58384397D02*
X160183402Y-58384397D01*
X160183402Y-58384397D02*
X159992926Y-58336778D01*
X159992926Y-58336778D02*
X159897688Y-58241540D01*
X159897688Y-58241540D02*
X159850068Y-58146302D01*
X159850068Y-58146302D02*
X159850068Y-57955826D01*
X159850068Y-57955826D02*
X159897688Y-57860588D01*
X159897688Y-57860588D02*
X159992926Y-57765350D01*
X159992926Y-57765350D02*
X160183402Y-57717731D01*
X160183402Y-57717731D02*
X160516735Y-57717731D01*
X160516735Y-57717731D02*
X160707211Y-57765350D01*
X160707211Y-57765350D02*
X160802449Y-57860588D01*
X160802449Y-57860588D02*
X160850068Y-57955826D01*
X160850068Y-59765350D02*
X160850068Y-59860588D01*
X160850068Y-59860588D02*
X160802449Y-59955826D01*
X160802449Y-59955826D02*
X160754830Y-60003445D01*
X160754830Y-60003445D02*
X160659592Y-60051064D01*
X160659592Y-60051064D02*
X160469116Y-60098683D01*
X160469116Y-60098683D02*
X160231021Y-60098683D01*
X160231021Y-60098683D02*
X160040545Y-60051064D01*
X160040545Y-60051064D02*
X159945307Y-60003445D01*
X159945307Y-60003445D02*
X159897688Y-59955826D01*
X159897688Y-59955826D02*
X159850068Y-59860588D01*
X159850068Y-59860588D02*
X159850068Y-59765350D01*
X159850068Y-59765350D02*
X159897688Y-59670112D01*
X159897688Y-59670112D02*
X159945307Y-59622493D01*
X159945307Y-59622493D02*
X160040545Y-59574874D01*
X160040545Y-59574874D02*
X160231021Y-59527255D01*
X160231021Y-59527255D02*
X160469116Y-59527255D01*
X160469116Y-59527255D02*
X160659592Y-59574874D01*
X160659592Y-59574874D02*
X160754830Y-59622493D01*
X160754830Y-59622493D02*
X160802449Y-59670112D01*
X160802449Y-59670112D02*
X160850068Y-59765350D01*
X159850068Y-61051064D02*
X159850068Y-60479636D01*
X159850068Y-60765350D02*
X160850068Y-60765350D01*
X160850068Y-60765350D02*
X160707211Y-60670112D01*
X160707211Y-60670112D02*
X160611973Y-60574874D01*
X160611973Y-60574874D02*
X160564354Y-60479636D01*
X159945307Y-61479636D02*
X159897688Y-61527255D01*
X159897688Y-61527255D02*
X159850068Y-61479636D01*
X159850068Y-61479636D02*
X159897688Y-61432017D01*
X159897688Y-61432017D02*
X159945307Y-61479636D01*
X159945307Y-61479636D02*
X159850068Y-61479636D01*
X160469116Y-61479636D02*
X160421497Y-61527255D01*
X160421497Y-61527255D02*
X160373878Y-61479636D01*
X160373878Y-61479636D02*
X160421497Y-61432017D01*
X160421497Y-61432017D02*
X160469116Y-61479636D01*
X160469116Y-61479636D02*
X160373878Y-61479636D01*
X159850068Y-62717731D02*
X160850068Y-62717731D01*
X160850068Y-62717731D02*
X160850068Y-63098683D01*
X160850068Y-63098683D02*
X160802449Y-63193921D01*
X160802449Y-63193921D02*
X160754830Y-63241540D01*
X160754830Y-63241540D02*
X160659592Y-63289159D01*
X160659592Y-63289159D02*
X160516735Y-63289159D01*
X160516735Y-63289159D02*
X160421497Y-63241540D01*
X160421497Y-63241540D02*
X160373878Y-63193921D01*
X160373878Y-63193921D02*
X160326259Y-63098683D01*
X160326259Y-63098683D02*
X160326259Y-62717731D01*
X160135783Y-63670112D02*
X160135783Y-64146302D01*
X159850068Y-63574874D02*
X160850068Y-63908207D01*
X160850068Y-63908207D02*
X159850068Y-64241540D01*
X159850068Y-65146302D02*
X160326259Y-64812969D01*
X159850068Y-64574874D02*
X160850068Y-64574874D01*
X160850068Y-64574874D02*
X160850068Y-64955826D01*
X160850068Y-64955826D02*
X160802449Y-65051064D01*
X160802449Y-65051064D02*
X160754830Y-65098683D01*
X160754830Y-65098683D02*
X160659592Y-65146302D01*
X160659592Y-65146302D02*
X160516735Y-65146302D01*
X160516735Y-65146302D02*
X160421497Y-65098683D01*
X160421497Y-65098683D02*
X160373878Y-65051064D01*
X160373878Y-65051064D02*
X160326259Y-64955826D01*
X160326259Y-64955826D02*
X160326259Y-64574874D01*
X160135783Y-65527255D02*
X160135783Y-66003445D01*
X159850068Y-65432017D02*
X160850068Y-65765350D01*
X160850068Y-65765350D02*
X159850068Y-66098683D01*
X159850068Y-66908207D02*
X159850068Y-66432017D01*
X159850068Y-66432017D02*
X160850068Y-66432017D01*
X159850068Y-67717731D02*
X159850068Y-67241541D01*
X159850068Y-67241541D02*
X160850068Y-67241541D01*
X160373878Y-68051065D02*
X160373878Y-68384398D01*
X159850068Y-68527255D02*
X159850068Y-68051065D01*
X159850068Y-68051065D02*
X160850068Y-68051065D01*
X160850068Y-68051065D02*
X160850068Y-68527255D01*
X159850068Y-69432017D02*
X159850068Y-68955827D01*
X159850068Y-68955827D02*
X160850068Y-68955827D01*
X159850068Y-71336780D02*
X159850068Y-71289161D01*
X159850068Y-71289161D02*
X159897688Y-71193922D01*
X159897688Y-71193922D02*
X160040545Y-71051065D01*
X160040545Y-71051065D02*
X160326259Y-70812970D01*
X160326259Y-70812970D02*
X160469116Y-70717732D01*
X160469116Y-70717732D02*
X160611973Y-70670113D01*
X160611973Y-70670113D02*
X160707211Y-70670113D01*
X160707211Y-70670113D02*
X160802449Y-70717732D01*
X160802449Y-70717732D02*
X160850068Y-70812970D01*
X160850068Y-70812970D02*
X160850068Y-70860589D01*
X160850068Y-70860589D02*
X160802449Y-70955827D01*
X160802449Y-70955827D02*
X160707211Y-71003446D01*
X160707211Y-71003446D02*
X160659592Y-71003446D01*
X160659592Y-71003446D02*
X160564354Y-70955827D01*
X160564354Y-70955827D02*
X160516735Y-70908208D01*
X160516735Y-70908208D02*
X160326259Y-70622494D01*
X160326259Y-70622494D02*
X160278640Y-70574875D01*
X160278640Y-70574875D02*
X160183402Y-70527256D01*
X160183402Y-70527256D02*
X160040545Y-70527256D01*
X160040545Y-70527256D02*
X159945307Y-70574875D01*
X159945307Y-70574875D02*
X159897688Y-70622494D01*
X159897688Y-70622494D02*
X159850068Y-70717732D01*
X159850068Y-70717732D02*
X159850068Y-70860589D01*
X159850068Y-70860589D02*
X159897688Y-70955827D01*
X159897688Y-70955827D02*
X159945307Y-71003446D01*
X159945307Y-71003446D02*
X160135783Y-71146303D01*
X160135783Y-71146303D02*
X160278640Y-71193922D01*
X160278640Y-71193922D02*
X160373878Y-71193922D01*
X159897688Y-72479637D02*
X159850068Y-72622494D01*
X159850068Y-72622494D02*
X159850068Y-72860589D01*
X159850068Y-72860589D02*
X159897688Y-72955827D01*
X159897688Y-72955827D02*
X159945307Y-73003446D01*
X159945307Y-73003446D02*
X160040545Y-73051065D01*
X160040545Y-73051065D02*
X160135783Y-73051065D01*
X160135783Y-73051065D02*
X160231021Y-73003446D01*
X160231021Y-73003446D02*
X160278640Y-72955827D01*
X160278640Y-72955827D02*
X160326259Y-72860589D01*
X160326259Y-72860589D02*
X160373878Y-72670113D01*
X160373878Y-72670113D02*
X160421497Y-72574875D01*
X160421497Y-72574875D02*
X160469116Y-72527256D01*
X160469116Y-72527256D02*
X160564354Y-72479637D01*
X160564354Y-72479637D02*
X160659592Y-72479637D01*
X160659592Y-72479637D02*
X160754830Y-72527256D01*
X160754830Y-72527256D02*
X160802449Y-72574875D01*
X160802449Y-72574875D02*
X160850068Y-72670113D01*
X160850068Y-72670113D02*
X160850068Y-72908208D01*
X160850068Y-72908208D02*
X160802449Y-73051065D01*
X160373878Y-73479637D02*
X160373878Y-73812970D01*
X159850068Y-73955827D02*
X159850068Y-73479637D01*
X159850068Y-73479637D02*
X160850068Y-73479637D01*
X160850068Y-73479637D02*
X160850068Y-73955827D01*
X159850068Y-74955827D02*
X160326259Y-74622494D01*
X159850068Y-74384399D02*
X160850068Y-74384399D01*
X160850068Y-74384399D02*
X160850068Y-74765351D01*
X160850068Y-74765351D02*
X160802449Y-74860589D01*
X160802449Y-74860589D02*
X160754830Y-74908208D01*
X160754830Y-74908208D02*
X160659592Y-74955827D01*
X160659592Y-74955827D02*
X160516735Y-74955827D01*
X160516735Y-74955827D02*
X160421497Y-74908208D01*
X160421497Y-74908208D02*
X160373878Y-74860589D01*
X160373878Y-74860589D02*
X160326259Y-74765351D01*
X160326259Y-74765351D02*
X160326259Y-74384399D01*
X159850068Y-75384399D02*
X160850068Y-75384399D01*
X160373878Y-75860589D02*
X160373878Y-76193922D01*
X159850068Y-76336779D02*
X159850068Y-75860589D01*
X159850068Y-75860589D02*
X160850068Y-75860589D01*
X160850068Y-75860589D02*
X160850068Y-76336779D01*
X159897688Y-76717732D02*
X159850068Y-76860589D01*
X159850068Y-76860589D02*
X159850068Y-77098684D01*
X159850068Y-77098684D02*
X159897688Y-77193922D01*
X159897688Y-77193922D02*
X159945307Y-77241541D01*
X159945307Y-77241541D02*
X160040545Y-77289160D01*
X160040545Y-77289160D02*
X160135783Y-77289160D01*
X160135783Y-77289160D02*
X160231021Y-77241541D01*
X160231021Y-77241541D02*
X160278640Y-77193922D01*
X160278640Y-77193922D02*
X160326259Y-77098684D01*
X160326259Y-77098684D02*
X160373878Y-76908208D01*
X160373878Y-76908208D02*
X160421497Y-76812970D01*
X160421497Y-76812970D02*
X160469116Y-76765351D01*
X160469116Y-76765351D02*
X160564354Y-76717732D01*
X160564354Y-76717732D02*
X160659592Y-76717732D01*
X160659592Y-76717732D02*
X160754830Y-76765351D01*
X160754830Y-76765351D02*
X160802449Y-76812970D01*
X160802449Y-76812970D02*
X160850068Y-76908208D01*
X160850068Y-76908208D02*
X160850068Y-77146303D01*
X160850068Y-77146303D02*
X160802449Y-77289160D01*
X158240124Y-52336779D02*
X159240124Y-52336779D01*
X159240124Y-52336779D02*
X159240124Y-52574874D01*
X159240124Y-52574874D02*
X159192505Y-52717731D01*
X159192505Y-52717731D02*
X159097267Y-52812969D01*
X159097267Y-52812969D02*
X159002029Y-52860588D01*
X159002029Y-52860588D02*
X158811553Y-52908207D01*
X158811553Y-52908207D02*
X158668696Y-52908207D01*
X158668696Y-52908207D02*
X158478220Y-52860588D01*
X158478220Y-52860588D02*
X158382982Y-52812969D01*
X158382982Y-52812969D02*
X158287744Y-52717731D01*
X158287744Y-52717731D02*
X158240124Y-52574874D01*
X158240124Y-52574874D02*
X158240124Y-52336779D01*
X158335363Y-53336779D02*
X158287744Y-53384398D01*
X158287744Y-53384398D02*
X158240124Y-53336779D01*
X158240124Y-53336779D02*
X158287744Y-53289160D01*
X158287744Y-53289160D02*
X158335363Y-53336779D01*
X158335363Y-53336779D02*
X158240124Y-53336779D01*
X158287744Y-53765350D02*
X158240124Y-53908207D01*
X158240124Y-53908207D02*
X158240124Y-54146302D01*
X158240124Y-54146302D02*
X158287744Y-54241540D01*
X158287744Y-54241540D02*
X158335363Y-54289159D01*
X158335363Y-54289159D02*
X158430601Y-54336778D01*
X158430601Y-54336778D02*
X158525839Y-54336778D01*
X158525839Y-54336778D02*
X158621077Y-54289159D01*
X158621077Y-54289159D02*
X158668696Y-54241540D01*
X158668696Y-54241540D02*
X158716315Y-54146302D01*
X158716315Y-54146302D02*
X158763934Y-53955826D01*
X158763934Y-53955826D02*
X158811553Y-53860588D01*
X158811553Y-53860588D02*
X158859172Y-53812969D01*
X158859172Y-53812969D02*
X158954410Y-53765350D01*
X158954410Y-53765350D02*
X159049648Y-53765350D01*
X159049648Y-53765350D02*
X159144886Y-53812969D01*
X159144886Y-53812969D02*
X159192505Y-53860588D01*
X159192505Y-53860588D02*
X159240124Y-53955826D01*
X159240124Y-53955826D02*
X159240124Y-54193921D01*
X159240124Y-54193921D02*
X159192505Y-54336778D01*
X158240124Y-54765350D02*
X159240124Y-54765350D01*
X158763934Y-54765350D02*
X158763934Y-55336778D01*
X158240124Y-55336778D02*
X159240124Y-55336778D01*
X158763934Y-55812969D02*
X158763934Y-56146302D01*
X158240124Y-56289159D02*
X158240124Y-55812969D01*
X158240124Y-55812969D02*
X159240124Y-55812969D01*
X159240124Y-55812969D02*
X159240124Y-56289159D01*
X158240124Y-57289159D02*
X158716315Y-56955826D01*
X158240124Y-56717731D02*
X159240124Y-56717731D01*
X159240124Y-56717731D02*
X159240124Y-57098683D01*
X159240124Y-57098683D02*
X159192505Y-57193921D01*
X159192505Y-57193921D02*
X159144886Y-57241540D01*
X159144886Y-57241540D02*
X159049648Y-57289159D01*
X159049648Y-57289159D02*
X158906791Y-57289159D01*
X158906791Y-57289159D02*
X158811553Y-57241540D01*
X158811553Y-57241540D02*
X158763934Y-57193921D01*
X158763934Y-57193921D02*
X158716315Y-57098683D01*
X158716315Y-57098683D02*
X158716315Y-56717731D01*
X158240124Y-57717731D02*
X159240124Y-57717731D01*
X159240124Y-57717731D02*
X158525839Y-58051064D01*
X158525839Y-58051064D02*
X159240124Y-58384397D01*
X159240124Y-58384397D02*
X158240124Y-58384397D01*
X158525839Y-58812969D02*
X158525839Y-59289159D01*
X158240124Y-58717731D02*
X159240124Y-59051064D01*
X159240124Y-59051064D02*
X158240124Y-59384397D01*
X158240124Y-59717731D02*
X159240124Y-59717731D01*
X159240124Y-59717731D02*
X158240124Y-60289159D01*
X158240124Y-60289159D02*
X159240124Y-60289159D01*
X157630180Y-52527255D02*
X157630180Y-52622493D01*
X157630180Y-52622493D02*
X157582561Y-52717731D01*
X157582561Y-52717731D02*
X157534942Y-52765350D01*
X157534942Y-52765350D02*
X157439704Y-52812969D01*
X157439704Y-52812969D02*
X157249228Y-52860588D01*
X157249228Y-52860588D02*
X157011133Y-52860588D01*
X157011133Y-52860588D02*
X156820657Y-52812969D01*
X156820657Y-52812969D02*
X156725419Y-52765350D01*
X156725419Y-52765350D02*
X156677800Y-52717731D01*
X156677800Y-52717731D02*
X156630180Y-52622493D01*
X156630180Y-52622493D02*
X156630180Y-52527255D01*
X156630180Y-52527255D02*
X156677800Y-52432017D01*
X156677800Y-52432017D02*
X156725419Y-52384398D01*
X156725419Y-52384398D02*
X156820657Y-52336779D01*
X156820657Y-52336779D02*
X157011133Y-52289160D01*
X157011133Y-52289160D02*
X157249228Y-52289160D01*
X157249228Y-52289160D02*
X157439704Y-52336779D01*
X157439704Y-52336779D02*
X157534942Y-52384398D01*
X157534942Y-52384398D02*
X157582561Y-52432017D01*
X157582561Y-52432017D02*
X157630180Y-52527255D01*
X157630180Y-53193922D02*
X157630180Y-53812969D01*
X157630180Y-53812969D02*
X157249228Y-53479636D01*
X157249228Y-53479636D02*
X157249228Y-53622493D01*
X157249228Y-53622493D02*
X157201609Y-53717731D01*
X157201609Y-53717731D02*
X157153990Y-53765350D01*
X157153990Y-53765350D02*
X157058752Y-53812969D01*
X157058752Y-53812969D02*
X156820657Y-53812969D01*
X156820657Y-53812969D02*
X156725419Y-53765350D01*
X156725419Y-53765350D02*
X156677800Y-53717731D01*
X156677800Y-53717731D02*
X156630180Y-53622493D01*
X156630180Y-53622493D02*
X156630180Y-53336779D01*
X156630180Y-53336779D02*
X156677800Y-53241541D01*
X156677800Y-53241541D02*
X156725419Y-53193922D01*
X157677800Y-54955826D02*
X156392085Y-54098684D01*
X157534942Y-55241541D02*
X157582561Y-55289160D01*
X157582561Y-55289160D02*
X157630180Y-55384398D01*
X157630180Y-55384398D02*
X157630180Y-55622493D01*
X157630180Y-55622493D02*
X157582561Y-55717731D01*
X157582561Y-55717731D02*
X157534942Y-55765350D01*
X157534942Y-55765350D02*
X157439704Y-55812969D01*
X157439704Y-55812969D02*
X157344466Y-55812969D01*
X157344466Y-55812969D02*
X157201609Y-55765350D01*
X157201609Y-55765350D02*
X156630180Y-55193922D01*
X156630180Y-55193922D02*
X156630180Y-55812969D01*
X157296847Y-56670112D02*
X156630180Y-56670112D01*
X157677800Y-56432017D02*
X156963514Y-56193922D01*
X156963514Y-56193922D02*
X156963514Y-56812969D01*
X141833333Y-87584819D02*
X141500000Y-87108628D01*
X141261905Y-87584819D02*
X141261905Y-86584819D01*
X141261905Y-86584819D02*
X141642857Y-86584819D01*
X141642857Y-86584819D02*
X141738095Y-86632438D01*
X141738095Y-86632438D02*
X141785714Y-86680057D01*
X141785714Y-86680057D02*
X141833333Y-86775295D01*
X141833333Y-86775295D02*
X141833333Y-86918152D01*
X141833333Y-86918152D02*
X141785714Y-87013390D01*
X141785714Y-87013390D02*
X141738095Y-87061009D01*
X141738095Y-87061009D02*
X141642857Y-87108628D01*
X141642857Y-87108628D02*
X141261905Y-87108628D01*
X142785714Y-87584819D02*
X142214286Y-87584819D01*
X142500000Y-87584819D02*
X142500000Y-86584819D01*
X142500000Y-86584819D02*
X142404762Y-86727676D01*
X142404762Y-86727676D02*
X142309524Y-86822914D01*
X142309524Y-86822914D02*
X142214286Y-86870533D01*
X140190476Y-91420057D02*
X140238095Y-91372438D01*
X140238095Y-91372438D02*
X140333333Y-91324819D01*
X140333333Y-91324819D02*
X140571428Y-91324819D01*
X140571428Y-91324819D02*
X140666666Y-91372438D01*
X140666666Y-91372438D02*
X140714285Y-91420057D01*
X140714285Y-91420057D02*
X140761904Y-91515295D01*
X140761904Y-91515295D02*
X140761904Y-91610533D01*
X140761904Y-91610533D02*
X140714285Y-91753390D01*
X140714285Y-91753390D02*
X140142857Y-92324819D01*
X140142857Y-92324819D02*
X140761904Y-92324819D01*
X141619047Y-91324819D02*
X141428571Y-91324819D01*
X141428571Y-91324819D02*
X141333333Y-91372438D01*
X141333333Y-91372438D02*
X141285714Y-91420057D01*
X141285714Y-91420057D02*
X141190476Y-91562914D01*
X141190476Y-91562914D02*
X141142857Y-91753390D01*
X141142857Y-91753390D02*
X141142857Y-92134342D01*
X141142857Y-92134342D02*
X141190476Y-92229580D01*
X141190476Y-92229580D02*
X141238095Y-92277200D01*
X141238095Y-92277200D02*
X141333333Y-92324819D01*
X141333333Y-92324819D02*
X141523809Y-92324819D01*
X141523809Y-92324819D02*
X141619047Y-92277200D01*
X141619047Y-92277200D02*
X141666666Y-92229580D01*
X141666666Y-92229580D02*
X141714285Y-92134342D01*
X141714285Y-92134342D02*
X141714285Y-91896247D01*
X141714285Y-91896247D02*
X141666666Y-91801009D01*
X141666666Y-91801009D02*
X141619047Y-91753390D01*
X141619047Y-91753390D02*
X141523809Y-91705771D01*
X141523809Y-91705771D02*
X141333333Y-91705771D01*
X141333333Y-91705771D02*
X141238095Y-91753390D01*
X141238095Y-91753390D02*
X141190476Y-91801009D01*
X141190476Y-91801009D02*
X141142857Y-91896247D01*
X142333333Y-91324819D02*
X142428571Y-91324819D01*
X142428571Y-91324819D02*
X142523809Y-91372438D01*
X142523809Y-91372438D02*
X142571428Y-91420057D01*
X142571428Y-91420057D02*
X142619047Y-91515295D01*
X142619047Y-91515295D02*
X142666666Y-91705771D01*
X142666666Y-91705771D02*
X142666666Y-91943866D01*
X142666666Y-91943866D02*
X142619047Y-92134342D01*
X142619047Y-92134342D02*
X142571428Y-92229580D01*
X142571428Y-92229580D02*
X142523809Y-92277200D01*
X142523809Y-92277200D02*
X142428571Y-92324819D01*
X142428571Y-92324819D02*
X142333333Y-92324819D01*
X142333333Y-92324819D02*
X142238095Y-92277200D01*
X142238095Y-92277200D02*
X142190476Y-92229580D01*
X142190476Y-92229580D02*
X142142857Y-92134342D01*
X142142857Y-92134342D02*
X142095238Y-91943866D01*
X142095238Y-91943866D02*
X142095238Y-91705771D01*
X142095238Y-91705771D02*
X142142857Y-91515295D01*
X142142857Y-91515295D02*
X142190476Y-91420057D01*
X142190476Y-91420057D02*
X142238095Y-91372438D01*
X142238095Y-91372438D02*
X142333333Y-91324819D01*
X143047619Y-92324819D02*
X143285714Y-92324819D01*
X143285714Y-92324819D02*
X143285714Y-92134342D01*
X143285714Y-92134342D02*
X143190476Y-92086723D01*
X143190476Y-92086723D02*
X143095238Y-91991485D01*
X143095238Y-91991485D02*
X143047619Y-91848628D01*
X143047619Y-91848628D02*
X143047619Y-91610533D01*
X143047619Y-91610533D02*
X143095238Y-91467676D01*
X143095238Y-91467676D02*
X143190476Y-91372438D01*
X143190476Y-91372438D02*
X143333333Y-91324819D01*
X143333333Y-91324819D02*
X143523809Y-91324819D01*
X143523809Y-91324819D02*
X143666666Y-91372438D01*
X143666666Y-91372438D02*
X143761904Y-91467676D01*
X143761904Y-91467676D02*
X143809523Y-91610533D01*
X143809523Y-91610533D02*
X143809523Y-91848628D01*
X143809523Y-91848628D02*
X143761904Y-91991485D01*
X143761904Y-91991485D02*
X143666666Y-92086723D01*
X143666666Y-92086723D02*
X143571428Y-92134342D01*
X143571428Y-92134342D02*
X143571428Y-92324819D01*
X143571428Y-92324819D02*
X143809523Y-92324819D01*
X122753333Y-92324819D02*
X122420000Y-91848628D01*
X122181905Y-92324819D02*
X122181905Y-91324819D01*
X122181905Y-91324819D02*
X122562857Y-91324819D01*
X122562857Y-91324819D02*
X122658095Y-91372438D01*
X122658095Y-91372438D02*
X122705714Y-91420057D01*
X122705714Y-91420057D02*
X122753333Y-91515295D01*
X122753333Y-91515295D02*
X122753333Y-91658152D01*
X122753333Y-91658152D02*
X122705714Y-91753390D01*
X122705714Y-91753390D02*
X122658095Y-91801009D01*
X122658095Y-91801009D02*
X122562857Y-91848628D01*
X122562857Y-91848628D02*
X122181905Y-91848628D01*
X123134286Y-91420057D02*
X123181905Y-91372438D01*
X123181905Y-91372438D02*
X123277143Y-91324819D01*
X123277143Y-91324819D02*
X123515238Y-91324819D01*
X123515238Y-91324819D02*
X123610476Y-91372438D01*
X123610476Y-91372438D02*
X123658095Y-91420057D01*
X123658095Y-91420057D02*
X123705714Y-91515295D01*
X123705714Y-91515295D02*
X123705714Y-91610533D01*
X123705714Y-91610533D02*
X123658095Y-91753390D01*
X123658095Y-91753390D02*
X123086667Y-92324819D01*
X123086667Y-92324819D02*
X123705714Y-92324819D01*
X121110476Y-86680057D02*
X121158095Y-86632438D01*
X121158095Y-86632438D02*
X121253333Y-86584819D01*
X121253333Y-86584819D02*
X121491428Y-86584819D01*
X121491428Y-86584819D02*
X121586666Y-86632438D01*
X121586666Y-86632438D02*
X121634285Y-86680057D01*
X121634285Y-86680057D02*
X121681904Y-86775295D01*
X121681904Y-86775295D02*
X121681904Y-86870533D01*
X121681904Y-86870533D02*
X121634285Y-87013390D01*
X121634285Y-87013390D02*
X121062857Y-87584819D01*
X121062857Y-87584819D02*
X121681904Y-87584819D01*
X122539047Y-86584819D02*
X122348571Y-86584819D01*
X122348571Y-86584819D02*
X122253333Y-86632438D01*
X122253333Y-86632438D02*
X122205714Y-86680057D01*
X122205714Y-86680057D02*
X122110476Y-86822914D01*
X122110476Y-86822914D02*
X122062857Y-87013390D01*
X122062857Y-87013390D02*
X122062857Y-87394342D01*
X122062857Y-87394342D02*
X122110476Y-87489580D01*
X122110476Y-87489580D02*
X122158095Y-87537200D01*
X122158095Y-87537200D02*
X122253333Y-87584819D01*
X122253333Y-87584819D02*
X122443809Y-87584819D01*
X122443809Y-87584819D02*
X122539047Y-87537200D01*
X122539047Y-87537200D02*
X122586666Y-87489580D01*
X122586666Y-87489580D02*
X122634285Y-87394342D01*
X122634285Y-87394342D02*
X122634285Y-87156247D01*
X122634285Y-87156247D02*
X122586666Y-87061009D01*
X122586666Y-87061009D02*
X122539047Y-87013390D01*
X122539047Y-87013390D02*
X122443809Y-86965771D01*
X122443809Y-86965771D02*
X122253333Y-86965771D01*
X122253333Y-86965771D02*
X122158095Y-87013390D01*
X122158095Y-87013390D02*
X122110476Y-87061009D01*
X122110476Y-87061009D02*
X122062857Y-87156247D01*
X123253333Y-86584819D02*
X123348571Y-86584819D01*
X123348571Y-86584819D02*
X123443809Y-86632438D01*
X123443809Y-86632438D02*
X123491428Y-86680057D01*
X123491428Y-86680057D02*
X123539047Y-86775295D01*
X123539047Y-86775295D02*
X123586666Y-86965771D01*
X123586666Y-86965771D02*
X123586666Y-87203866D01*
X123586666Y-87203866D02*
X123539047Y-87394342D01*
X123539047Y-87394342D02*
X123491428Y-87489580D01*
X123491428Y-87489580D02*
X123443809Y-87537200D01*
X123443809Y-87537200D02*
X123348571Y-87584819D01*
X123348571Y-87584819D02*
X123253333Y-87584819D01*
X123253333Y-87584819D02*
X123158095Y-87537200D01*
X123158095Y-87537200D02*
X123110476Y-87489580D01*
X123110476Y-87489580D02*
X123062857Y-87394342D01*
X123062857Y-87394342D02*
X123015238Y-87203866D01*
X123015238Y-87203866D02*
X123015238Y-86965771D01*
X123015238Y-86965771D02*
X123062857Y-86775295D01*
X123062857Y-86775295D02*
X123110476Y-86680057D01*
X123110476Y-86680057D02*
X123158095Y-86632438D01*
X123158095Y-86632438D02*
X123253333Y-86584819D01*
X123967619Y-87584819D02*
X124205714Y-87584819D01*
X124205714Y-87584819D02*
X124205714Y-87394342D01*
X124205714Y-87394342D02*
X124110476Y-87346723D01*
X124110476Y-87346723D02*
X124015238Y-87251485D01*
X124015238Y-87251485D02*
X123967619Y-87108628D01*
X123967619Y-87108628D02*
X123967619Y-86870533D01*
X123967619Y-86870533D02*
X124015238Y-86727676D01*
X124015238Y-86727676D02*
X124110476Y-86632438D01*
X124110476Y-86632438D02*
X124253333Y-86584819D01*
X124253333Y-86584819D02*
X124443809Y-86584819D01*
X124443809Y-86584819D02*
X124586666Y-86632438D01*
X124586666Y-86632438D02*
X124681904Y-86727676D01*
X124681904Y-86727676D02*
X124729523Y-86870533D01*
X124729523Y-86870533D02*
X124729523Y-87108628D01*
X124729523Y-87108628D02*
X124681904Y-87251485D01*
X124681904Y-87251485D02*
X124586666Y-87346723D01*
X124586666Y-87346723D02*
X124491428Y-87394342D01*
X124491428Y-87394342D02*
X124491428Y-87584819D01*
X124491428Y-87584819D02*
X124729523Y-87584819D01*
D11*
X108666667Y-71409800D02*
X108809524Y-71457419D01*
X108809524Y-71457419D02*
X109047619Y-71457419D01*
X109047619Y-71457419D02*
X109142857Y-71409800D01*
X109142857Y-71409800D02*
X109190476Y-71362180D01*
X109190476Y-71362180D02*
X109238095Y-71266942D01*
X109238095Y-71266942D02*
X109238095Y-71171704D01*
X109238095Y-71171704D02*
X109190476Y-71076466D01*
X109190476Y-71076466D02*
X109142857Y-71028847D01*
X109142857Y-71028847D02*
X109047619Y-70981228D01*
X109047619Y-70981228D02*
X108857143Y-70933609D01*
X108857143Y-70933609D02*
X108761905Y-70885990D01*
X108761905Y-70885990D02*
X108714286Y-70838371D01*
X108714286Y-70838371D02*
X108666667Y-70743133D01*
X108666667Y-70743133D02*
X108666667Y-70647895D01*
X108666667Y-70647895D02*
X108714286Y-70552657D01*
X108714286Y-70552657D02*
X108761905Y-70505038D01*
X108761905Y-70505038D02*
X108857143Y-70457419D01*
X108857143Y-70457419D02*
X109095238Y-70457419D01*
X109095238Y-70457419D02*
X109238095Y-70505038D01*
X109571429Y-70457419D02*
X109809524Y-71457419D01*
X109809524Y-71457419D02*
X110000000Y-70743133D01*
X110000000Y-70743133D02*
X110190476Y-71457419D01*
X110190476Y-71457419D02*
X110428572Y-70457419D01*
X110714286Y-70457419D02*
X111333333Y-70457419D01*
X111333333Y-70457419D02*
X111000000Y-70838371D01*
X111000000Y-70838371D02*
X111142857Y-70838371D01*
X111142857Y-70838371D02*
X111238095Y-70885990D01*
X111238095Y-70885990D02*
X111285714Y-70933609D01*
X111285714Y-70933609D02*
X111333333Y-71028847D01*
X111333333Y-71028847D02*
X111333333Y-71266942D01*
X111333333Y-71266942D02*
X111285714Y-71362180D01*
X111285714Y-71362180D02*
X111238095Y-71409800D01*
X111238095Y-71409800D02*
X111142857Y-71457419D01*
X111142857Y-71457419D02*
X110857143Y-71457419D01*
X110857143Y-71457419D02*
X110761905Y-71409800D01*
X110761905Y-71409800D02*
X110714286Y-71362180D01*
D10*
X139494819Y-60243094D02*
X138494819Y-60243094D01*
X138494819Y-60243094D02*
X138494819Y-60004999D01*
X138494819Y-60004999D02*
X138542438Y-59862142D01*
X138542438Y-59862142D02*
X138637676Y-59766904D01*
X138637676Y-59766904D02*
X138732914Y-59719285D01*
X138732914Y-59719285D02*
X138923390Y-59671666D01*
X138923390Y-59671666D02*
X139066247Y-59671666D01*
X139066247Y-59671666D02*
X139256723Y-59719285D01*
X139256723Y-59719285D02*
X139351961Y-59766904D01*
X139351961Y-59766904D02*
X139447200Y-59862142D01*
X139447200Y-59862142D02*
X139494819Y-60004999D01*
X139494819Y-60004999D02*
X139494819Y-60243094D01*
X139494819Y-58719285D02*
X139494819Y-59290713D01*
X139494819Y-59004999D02*
X138494819Y-59004999D01*
X138494819Y-59004999D02*
X138637676Y-59100237D01*
X138637676Y-59100237D02*
X138732914Y-59195475D01*
X138732914Y-59195475D02*
X138780533Y-59290713D01*
D11*
X139666667Y-65909800D02*
X139809524Y-65957419D01*
X139809524Y-65957419D02*
X140047619Y-65957419D01*
X140047619Y-65957419D02*
X140142857Y-65909800D01*
X140142857Y-65909800D02*
X140190476Y-65862180D01*
X140190476Y-65862180D02*
X140238095Y-65766942D01*
X140238095Y-65766942D02*
X140238095Y-65671704D01*
X140238095Y-65671704D02*
X140190476Y-65576466D01*
X140190476Y-65576466D02*
X140142857Y-65528847D01*
X140142857Y-65528847D02*
X140047619Y-65481228D01*
X140047619Y-65481228D02*
X139857143Y-65433609D01*
X139857143Y-65433609D02*
X139761905Y-65385990D01*
X139761905Y-65385990D02*
X139714286Y-65338371D01*
X139714286Y-65338371D02*
X139666667Y-65243133D01*
X139666667Y-65243133D02*
X139666667Y-65147895D01*
X139666667Y-65147895D02*
X139714286Y-65052657D01*
X139714286Y-65052657D02*
X139761905Y-65005038D01*
X139761905Y-65005038D02*
X139857143Y-64957419D01*
X139857143Y-64957419D02*
X140095238Y-64957419D01*
X140095238Y-64957419D02*
X140238095Y-65005038D01*
X140571429Y-64957419D02*
X140809524Y-65957419D01*
X140809524Y-65957419D02*
X141000000Y-65243133D01*
X141000000Y-65243133D02*
X141190476Y-65957419D01*
X141190476Y-65957419D02*
X141428572Y-64957419D01*
X141761905Y-65052657D02*
X141809524Y-65005038D01*
X141809524Y-65005038D02*
X141904762Y-64957419D01*
X141904762Y-64957419D02*
X142142857Y-64957419D01*
X142142857Y-64957419D02*
X142238095Y-65005038D01*
X142238095Y-65005038D02*
X142285714Y-65052657D01*
X142285714Y-65052657D02*
X142333333Y-65147895D01*
X142333333Y-65147895D02*
X142333333Y-65243133D01*
X142333333Y-65243133D02*
X142285714Y-65385990D01*
X142285714Y-65385990D02*
X141714286Y-65957419D01*
X141714286Y-65957419D02*
X142333333Y-65957419D01*
D10*
X117494819Y-60393094D02*
X116494819Y-60393094D01*
X116494819Y-60393094D02*
X116494819Y-60154999D01*
X116494819Y-60154999D02*
X116542438Y-60012142D01*
X116542438Y-60012142D02*
X116637676Y-59916904D01*
X116637676Y-59916904D02*
X116732914Y-59869285D01*
X116732914Y-59869285D02*
X116923390Y-59821666D01*
X116923390Y-59821666D02*
X117066247Y-59821666D01*
X117066247Y-59821666D02*
X117256723Y-59869285D01*
X117256723Y-59869285D02*
X117351961Y-59916904D01*
X117351961Y-59916904D02*
X117447200Y-60012142D01*
X117447200Y-60012142D02*
X117494819Y-60154999D01*
X117494819Y-60154999D02*
X117494819Y-60393094D01*
X116590057Y-59440713D02*
X116542438Y-59393094D01*
X116542438Y-59393094D02*
X116494819Y-59297856D01*
X116494819Y-59297856D02*
X116494819Y-59059761D01*
X116494819Y-59059761D02*
X116542438Y-58964523D01*
X116542438Y-58964523D02*
X116590057Y-58916904D01*
X116590057Y-58916904D02*
X116685295Y-58869285D01*
X116685295Y-58869285D02*
X116780533Y-58869285D01*
X116780533Y-58869285D02*
X116923390Y-58916904D01*
X116923390Y-58916904D02*
X117494819Y-59488332D01*
X117494819Y-59488332D02*
X117494819Y-58869285D01*
D11*
X125666667Y-71409800D02*
X125809524Y-71457419D01*
X125809524Y-71457419D02*
X126047619Y-71457419D01*
X126047619Y-71457419D02*
X126142857Y-71409800D01*
X126142857Y-71409800D02*
X126190476Y-71362180D01*
X126190476Y-71362180D02*
X126238095Y-71266942D01*
X126238095Y-71266942D02*
X126238095Y-71171704D01*
X126238095Y-71171704D02*
X126190476Y-71076466D01*
X126190476Y-71076466D02*
X126142857Y-71028847D01*
X126142857Y-71028847D02*
X126047619Y-70981228D01*
X126047619Y-70981228D02*
X125857143Y-70933609D01*
X125857143Y-70933609D02*
X125761905Y-70885990D01*
X125761905Y-70885990D02*
X125714286Y-70838371D01*
X125714286Y-70838371D02*
X125666667Y-70743133D01*
X125666667Y-70743133D02*
X125666667Y-70647895D01*
X125666667Y-70647895D02*
X125714286Y-70552657D01*
X125714286Y-70552657D02*
X125761905Y-70505038D01*
X125761905Y-70505038D02*
X125857143Y-70457419D01*
X125857143Y-70457419D02*
X126095238Y-70457419D01*
X126095238Y-70457419D02*
X126238095Y-70505038D01*
X126571429Y-70457419D02*
X126809524Y-71457419D01*
X126809524Y-71457419D02*
X127000000Y-70743133D01*
X127000000Y-70743133D02*
X127190476Y-71457419D01*
X127190476Y-71457419D02*
X127428572Y-70457419D01*
X128238095Y-70790752D02*
X128238095Y-71457419D01*
X128000000Y-70409800D02*
X127761905Y-71124085D01*
X127761905Y-71124085D02*
X128380952Y-71124085D01*
X140391667Y-76409800D02*
X140534524Y-76457419D01*
X140534524Y-76457419D02*
X140772619Y-76457419D01*
X140772619Y-76457419D02*
X140867857Y-76409800D01*
X140867857Y-76409800D02*
X140915476Y-76362180D01*
X140915476Y-76362180D02*
X140963095Y-76266942D01*
X140963095Y-76266942D02*
X140963095Y-76171704D01*
X140963095Y-76171704D02*
X140915476Y-76076466D01*
X140915476Y-76076466D02*
X140867857Y-76028847D01*
X140867857Y-76028847D02*
X140772619Y-75981228D01*
X140772619Y-75981228D02*
X140582143Y-75933609D01*
X140582143Y-75933609D02*
X140486905Y-75885990D01*
X140486905Y-75885990D02*
X140439286Y-75838371D01*
X140439286Y-75838371D02*
X140391667Y-75743133D01*
X140391667Y-75743133D02*
X140391667Y-75647895D01*
X140391667Y-75647895D02*
X140439286Y-75552657D01*
X140439286Y-75552657D02*
X140486905Y-75505038D01*
X140486905Y-75505038D02*
X140582143Y-75457419D01*
X140582143Y-75457419D02*
X140820238Y-75457419D01*
X140820238Y-75457419D02*
X140963095Y-75505038D01*
X141296429Y-75457419D02*
X141534524Y-76457419D01*
X141534524Y-76457419D02*
X141725000Y-75743133D01*
X141725000Y-75743133D02*
X141915476Y-76457419D01*
X141915476Y-76457419D02*
X142153572Y-75457419D01*
X143058333Y-76457419D02*
X142486905Y-76457419D01*
X142772619Y-76457419D02*
X142772619Y-75457419D01*
X142772619Y-75457419D02*
X142677381Y-75600276D01*
X142677381Y-75600276D02*
X142582143Y-75695514D01*
X142582143Y-75695514D02*
X142486905Y-75743133D01*
D12*
%TO.C,J1*%
X126610000Y-96130000D02*
X127940000Y-96130000D01*
X126610000Y-97460000D02*
X126610000Y-96130000D01*
X129210000Y-96130000D02*
X147050000Y-96130000D01*
X129210000Y-98790000D02*
X129210000Y-96130000D01*
X129210000Y-98790000D02*
X147050000Y-98790000D01*
X147050000Y-98790000D02*
X147050000Y-96130000D01*
%TO.C,J3*%
X149470000Y-96130000D02*
X150800000Y-96130000D01*
X149470000Y-97460000D02*
X149470000Y-96130000D01*
X152070000Y-96130000D02*
X164830000Y-96130000D01*
X152070000Y-98790000D02*
X152070000Y-96130000D01*
X152070000Y-98790000D02*
X164830000Y-98790000D01*
X164830000Y-98790000D02*
X164830000Y-96130000D01*
%TO.C,J2*%
X117466000Y-47870000D02*
X118796000Y-47870000D01*
X117466000Y-49200000D02*
X117466000Y-47870000D01*
X120066000Y-47870000D02*
X142986000Y-47870000D01*
X120066000Y-50530000D02*
X120066000Y-47870000D01*
X120066000Y-50530000D02*
X142986000Y-50530000D01*
X142986000Y-50530000D02*
X142986000Y-47870000D01*
%TO.C,J4*%
X144390000Y-47870000D02*
X145720000Y-47870000D01*
X144390000Y-49200000D02*
X144390000Y-47870000D01*
X146990000Y-47870000D02*
X164830000Y-47870000D01*
X146990000Y-50530000D02*
X146990000Y-47870000D01*
X146990000Y-50530000D02*
X164830000Y-50530000D01*
X164830000Y-50530000D02*
X164830000Y-47870000D01*
%TO.C,R1*%
X137960000Y-89500000D02*
X138730000Y-89500000D01*
X138730000Y-88130000D02*
X138730000Y-90870000D01*
X138730000Y-90870000D02*
X145270000Y-90870000D01*
X145270000Y-88130000D02*
X138730000Y-88130000D01*
X145270000Y-90870000D02*
X145270000Y-88130000D01*
X146040000Y-89500000D02*
X145270000Y-89500000D01*
%TO.C,R2*%
X118880000Y-89500000D02*
X119650000Y-89500000D01*
X119650000Y-88130000D02*
X119650000Y-90870000D01*
X119650000Y-90870000D02*
X126190000Y-90870000D01*
X126190000Y-88130000D02*
X119650000Y-88130000D01*
X126190000Y-90870000D02*
X126190000Y-88130000D01*
X126960000Y-89500000D02*
X126190000Y-89500000D01*
%TO.C,D1*%
X141455000Y-62065000D02*
X144545000Y-62065000D01*
X141455170Y-62064999D02*
G75*
G02*
X143000462Y-56515001I1544830J2559999D01*
G01*
X142999538Y-56515000D02*
G75*
G02*
X144544830Y-62065000I462J-2990000D01*
G01*
X145500000Y-59505000D02*
G75*
G02*
X140500000Y-59505000I-2500000J0D01*
G01*
X140500000Y-59505000D02*
G75*
G02*
X145500000Y-59505000I2500000J0D01*
G01*
%TO.C,D2*%
X119455000Y-62215000D02*
X122545000Y-62215000D01*
X119455170Y-62214999D02*
G75*
G02*
X121000462Y-56665001I1544830J2559999D01*
G01*
X120999538Y-56665000D02*
G75*
G02*
X122544830Y-62215000I462J-2990000D01*
G01*
X123500000Y-59655000D02*
G75*
G02*
X118500000Y-59655000I-2500000J0D01*
G01*
X118500000Y-59655000D02*
G75*
G02*
X123500000Y-59655000I2500000J0D01*
G01*
%TD*%
D13*
X127940000Y-97460000D03*
X130480000Y-97460000D03*
X133020000Y-97460000D03*
X135560000Y-97460000D03*
X138100000Y-97460000D03*
X140640000Y-97460000D03*
X143180000Y-97460000D03*
X145720000Y-97460000D03*
X150800000Y-97460000D03*
X153340000Y-97460000D03*
X155880000Y-97460000D03*
X158420000Y-97460000D03*
X160960000Y-97460000D03*
X163500000Y-97460000D03*
X118796000Y-49200000D03*
X121336000Y-49200000D03*
X123876000Y-49200000D03*
X126416000Y-49200000D03*
X128956000Y-49200000D03*
X131496000Y-49200000D03*
X134036000Y-49200000D03*
X136576000Y-49200000D03*
X139116000Y-49200000D03*
X141656000Y-49200000D03*
X145720000Y-49200000D03*
X148260000Y-49200000D03*
X150800000Y-49200000D03*
X153340000Y-49200000D03*
X155880000Y-49200000D03*
X158420000Y-49200000D03*
X160960000Y-49200000D03*
X163500000Y-49200000D03*
X136920000Y-89500000D03*
X147080000Y-89500000D03*
X128000000Y-89500000D03*
X117840000Y-89500000D03*
X110000000Y-72650000D03*
X116500000Y-72650000D03*
X116500000Y-77150000D03*
X110000000Y-77150000D03*
X143000000Y-60775000D03*
X143000000Y-58235000D03*
X115240000Y-49200000D03*
X141000000Y-67500000D03*
X147500000Y-67500000D03*
X147500000Y-72000000D03*
X141000000Y-72000000D03*
X121000000Y-60925000D03*
X121000000Y-58385000D03*
X127000000Y-72650000D03*
X133500000Y-72650000D03*
X133500000Y-77150000D03*
X127000000Y-77150000D03*
X141725000Y-78000000D03*
X148225000Y-78000000D03*
X148225000Y-82500000D03*
X141725000Y-82500000D03*
X113970000Y-97460000D03*
X166040000Y-64440000D03*
X166040000Y-92380000D03*
M02*
