%TF.GenerationSoftware,KiCad,Pcbnew,8.0.0*%
%TF.CreationDate,2024-03-19T17:26:08-04:00*%
%TF.ProjectId,1_arduino_project,315f6172-6475-4696-9e6f-5f70726f6a65,rev?*%
%TF.SameCoordinates,Original*%
%TF.FileFunction,Soldermask,Bot*%
%TF.FilePolarity,Negative*%
%FSLAX46Y46*%
G04 Gerber Fmt 4.6, Leading zero omitted, Abs format (unit mm)*
G04 Created by KiCad (PCBNEW 8.0.0) date 2024-03-19 17:26:08*
%MOMM*%
%LPD*%
G01*
G04 APERTURE LIST*
%ADD10R,1.700000X1.700000*%
%ADD11O,1.700000X1.700000*%
%ADD12C,1.600000*%
%ADD13O,1.600000X1.600000*%
%ADD14C,1.524000*%
%ADD15R,1.800000X1.800000*%
%ADD16C,1.800000*%
%ADD17C,3.200000*%
G04 APERTURE END LIST*
D10*
%TO.C,J1*%
X127940000Y-97460000D03*
D11*
X130480000Y-97460000D03*
X133020000Y-97460000D03*
X135560000Y-97460000D03*
X138100000Y-97460000D03*
X140640000Y-97460000D03*
X143180000Y-97460000D03*
X145720000Y-97460000D03*
%TD*%
D10*
%TO.C,J3*%
X150800000Y-97460000D03*
D11*
X153340000Y-97460000D03*
X155880000Y-97460000D03*
X158420000Y-97460000D03*
X160960000Y-97460000D03*
X163500000Y-97460000D03*
%TD*%
D10*
%TO.C,J2*%
X118796000Y-49200000D03*
D11*
X121336000Y-49200000D03*
X123876000Y-49200000D03*
X126416000Y-49200000D03*
X128956000Y-49200000D03*
X131496000Y-49200000D03*
X134036000Y-49200000D03*
X136576000Y-49200000D03*
X139116000Y-49200000D03*
X141656000Y-49200000D03*
%TD*%
D10*
%TO.C,J4*%
X145720000Y-49200000D03*
D11*
X148260000Y-49200000D03*
X150800000Y-49200000D03*
X153340000Y-49200000D03*
X155880000Y-49200000D03*
X158420000Y-49200000D03*
X160960000Y-49200000D03*
X163500000Y-49200000D03*
%TD*%
D12*
%TO.C,R1*%
X136920000Y-89500000D03*
D13*
X147080000Y-89500000D03*
%TD*%
D12*
%TO.C,R2*%
X128000000Y-89500000D03*
D13*
X117840000Y-89500000D03*
%TD*%
D14*
%TO.C,SW3*%
X110000000Y-72650000D03*
X116500000Y-72650000D03*
X116500000Y-77150000D03*
X110000000Y-77150000D03*
%TD*%
D15*
%TO.C,D1*%
X143000000Y-60775000D03*
D16*
X143000000Y-58235000D03*
%TD*%
D17*
%TO.C,MH1*%
X115240000Y-49200000D03*
%TD*%
D14*
%TO.C,SW2*%
X141000000Y-67500000D03*
X147500000Y-67500000D03*
X147500000Y-72000000D03*
X141000000Y-72000000D03*
%TD*%
D15*
%TO.C,D2*%
X121000000Y-60925000D03*
D16*
X121000000Y-58385000D03*
%TD*%
D14*
%TO.C,SW4*%
X127000000Y-72650000D03*
X133500000Y-72650000D03*
X133500000Y-77150000D03*
X127000000Y-77150000D03*
%TD*%
%TO.C,SW1*%
X141725000Y-78000000D03*
X148225000Y-78000000D03*
X148225000Y-82500000D03*
X141725000Y-82500000D03*
%TD*%
D17*
%TO.C,MH2*%
X113970000Y-97460000D03*
%TD*%
%TO.C,MH3*%
X166040000Y-64440000D03*
%TD*%
%TO.C,MH4*%
X166040000Y-92380000D03*
%TD*%
M02*
